<svg id="Layer_1" xmlns="http://www.w3.org/2000/svg" viewBox="18 219 836.6 164"><style>.st0{fill:#AB8B2F;} .st1{fill:#DBAB27;} .st2{fill:#FFFFFF;}</style><path class="st0" d="M74 340.3c0-15.5-12.5-28-28-28s-28 12.5-28 28c0 14.7 11.4 26.8 25.8 27.9V383h4.3v-14.8C62.6 367.1 74 355 74 340.3zm578.9 23.1c0-7.1-5.8-12.9-12.9-12.9s-12.9 5.8-12.9 12.9c0 6.8 5.2 12.3 11.9 12.8v6.8h2v-6.8c6.7-.6 11.9-6.1 11.9-12.8zm61.3-29.8c0-4.2-2.1-7.8-5.2-10 .8-1.6 1.2-3.4 1.2-5.3 0-6.8-5.5-12.2-12.2-12.3-1.2-5.5-6.1-9.6-12-9.6s-10.8 4.1-12 9.6h-.3c-6.8 0-12.3 5.5-12.3 12.3 0 1.5.3 3 .8 4.3-4 2-6.8 6.2-6.8 11 0 5.5 3.6 10.1 8.5 11.7.3 6.5 5.6 11.7 12.2 11.7 3 0 5.7-1.1 7.8-2.8v27.5h3.4v-28c2.1 1.6 4.6 2.5 7.4 2.5 6.5 0 11.8-5 12.2-11.4 4.3-1.9 7.3-6.2 7.3-11.2zm-444.5 20.5c0-1.9-.1-3.2-.1-3.2-.2-3.9-1.1-9.7-3.7-17.4l-.6-1.8c-1.1-3.7-2.5-7.3-4.1-9.9-3.2-5.9-6.1-5.7-8.1-4 0 0-4.3 1.8-9.3 21.6-1.2 4.8-1.8 8.7-1.9 11.6 0 0-.1 1.3-.1 3.2v1.1c.1 2.1.3 4.7 1.1 7.3.9 3.4 2.7 6.9 6.1 8.9 1.2.7 2.6 1.2 4.2 1.4.4.1.9.2 1.3.2v10h2.7v-10c.3 0 .7-.1 1-.2 1.6-.3 3-.8 4.2-1.4 3.4-2 5.2-5.5 6.1-8.9.8-2.6 1-5.2 1.1-7.3v-.8l.1-.4z"/><path class="st1" d="M596.1 333.7c0-4.2-2.1-7.8-5.2-10 .8-1.6 1.2-3.4 1.2-5.3 0-6.8-5.5-12.2-12.2-12.3-1.2-5.5-6.1-9.6-12-9.6s-10.8 4.1-12 9.6h-.3c-6.8 0-12.3 5.5-12.3 12.3 0 1.5.3 3 .8 4.3-4 2-6.8 6.2-6.8 11 0 5.5 3.6 10.1 8.5 11.7.3 6.5 5.6 11.7 12.2 11.7 3 0 5.7-1.1 7.8-2.8v27.5h3.4v-28c2.1 1.6 4.6 2.5 7.4 2.5 6.5 0 11.8-5 12.2-11.4 4.3-1.9 7.3-6.2 7.3-11.2z"/><path class="st0" d="M785.8 339.1c0-2.9.2-4.8.2-4.8.4-6 1.7-14.8 5.6-26.4.3-.9.5-1.8.8-2.8 1.7-5.6 3.8-11 6.2-15 4.9-9 9.2-8.6 12.3-6.1 0 0 6.5 2.7 14.1 32.8 1.9 7.3 2.7 13.2 2.9 17.5 0 0 .2 1.9.2 4.8v1.6c-.1 3.2-.5 7.1-1.6 11.1-1.4 5.2-4.1 10.4-9.2 13.4l-.1.1c-1.8 1-3.9 1.8-6.3 2.2-.7.2-1.4.3-2 .3V383h-4.2v-15.2l-1.5-.3c-2.4-.4-4.5-1.1-6.3-2.2l-.1-.1c-5.1-3-7.8-8.3-9.2-13.4-1.1-3.9-1.5-7.9-1.6-11.1v-1.6h-.2z"/><path class="st1" d="M823.5 350.8c0-2.1.2-3.5.2-3.5.3-4.4 1.2-10.8 4.1-19.3.2-.7.4-1.3.6-2 1.3-4.1 2.8-8.1 4.5-11 3.6-6.6 6.8-6.3 9-4.5 0 0 4.8 2 10.3 24 1.4 5.4 2 9.7 2.2 12.9 0 0 .2 1.4.2 3.5v1.3c-.1 2.3-.4 5.2-1.2 8.1-1 3.8-3 7.7-6.8 9.9h-.1c-1.3.8-2.9 1.3-4.7 1.6-.5.1-1 .2-1.5.2v11h-3.1v-11.2c-.4-.1-.7-.1-1.1-.2-1.8-.3-3.3-.8-4.7-1.6h-.1c-3.8-2.2-5.7-6.1-6.8-9.9-.8-2.9-1.1-5.8-1.2-8.1v-1c.2 0 .2-.1.2-.2 0 .1 0 0 0 0zm-380.4-9.9c0-2.8-.2-4.6-.2-4.6-.3-5.7-1.6-14.2-5.3-25.3-.3-.9-.5-1.7-.8-2.6-1.6-5.3-3.6-10.6-5.9-14.4-4.7-8.7-8.9-8.2-11.8-5.9 0 0-6.3 2.6-13.5 31.4-1.8 7-2.6 12.6-2.8 16.8 0 0-.2 1.8-.2 4.6v1.6c.1 3 .5 6.9 1.6 10.6 1.3 5 3.9 10 8.8 12.9l.1.1c1.7 1 3.7 1.7 6.1 2.1.6.2 1.3.3 2 .3V383h4v-14.6c.5-.1 1-.1 1.4-.3 2.3-.4 4.4-1.1 6.1-2.1l.1-.1c4.9-2.9 7.5-7.9 8.8-12.9 1.1-3.8 1.5-7.6 1.6-10.6V341l-.1-.1z"/><path class="st0" d="M476.1 340.6h72v42.5h-72v-42.5zm82.3-3.5l-21.1-17.9-23.9-20.4c-.7-.6-1.8-.6-2.6 0l-21.2 18.1v-8.3c0-.6-.4-1-1-1h-11.3c-.6 0-1 .4-1 1v19.6l-10.4 8.9c-1.4 1.2-.6 3.5 1.3 3.5h90c1.8-.1 2.6-2.4 1.2-3.5z"/><path class="st2" d="M536.3 355.6h-13.8c-.6 0-1 .4-1 1V383h15.8v-26.4c0-.5-.4-1-1-1z"/><circle class="st0" cx="525.2" cy="369.8" r="1.2"/><path class="st2" d="M356.5 351.1h54.2V383h-54.2v-31.9z"/><path class="st0" d="M401.5 362.4h-9.9c-.6 0-1 .4-1 1V383h11.9v-19.6c0-.5-.4-1-1-1z"/><circle class="st2" cx="393.7" cy="372.7" r="1.2"/><path class="st2" d="M709.8 332.7h85.4V383h-85.4v-50.3z"/><path class="st1" d="M781.3 350.6h-16.7c-.6 0-1 .4-1 1V383h18.7v-31.5c0-.5-.4-.9-1-.9z"/><circle class="st2" cx="768.3" cy="366.8" r="1.9"/><path class="st1" d="M769.2 235.5s-.2-7.1-6.1-12.2l-.1-.1c-.4-.4-.9-.8-1.4-1.2-.2-.1-.3-.2-.5-.3-.4-.2-.7-.5-1.1-.7l-.6-.3c-.4-.2-.7-.4-1.1-.5-.2-.1-.4-.2-.6-.2-.5-.2-1-.3-1.5-.5-.1 0-.1 0-.2-.1-.3-.1-.6-.1-.9-.2-.3 0-.5-.1-.8-.1-.4 0-.8-.1-1.2-.1h-1c-.4 0-.8 0-1.2.1-.3 0-.5.1-.8.1-.3 0-.6.1-.9.2-.1 0-.1 0-.2.1-.5.1-1 .3-1.5.5-.2.1-.4.2-.6.2-.4.2-.8.3-1.1.5l-.6.3c-.4.2-.7.4-1.1.7-.2.1-.3.2-.5.3-.5.4-1 .7-1.4 1.2 0 0-.1 0-.1.1-5.9 5.1-6.1 12.2-6.1 12.2-.1.9-.1 2.3.3 4.3v.1c.9 5.5 4.3 15.6 15 32l1.5 2.4 1.9-3c1.6-2.5 3-4.8 4.3-7l.1-.2c6.9-11.9 9.4-19.6 10.2-24.2v-.1c0-2 0-3.4-.1-4.3z"/><ellipse class="st0" cx="752.5" cy="236" rx="9.4" ry="9.5"/><ellipse class="st2" cx="752.5" cy="236" rx="6.9" ry="6.9"/><path class="st1" d="M226 272.4s-.2-5.6-4.9-9.7c0 0-.1 0-.1-.1-.4-.3-.7-.6-1.1-.9-.1-.1-.3-.2-.4-.3-.3-.2-.6-.4-.9-.5-.2-.1-.3-.2-.5-.3-.3-.2-.6-.3-.9-.4-.2-.1-.3-.1-.5-.2-.4-.1-.8-.3-1.2-.4-.1 0-.1 0-.2-.1-.2-.1-.5-.1-.7-.1s-.4-.1-.6-.1c-.3 0-.6 0-.9-.1h-.8c-.3 0-.6 0-.9.1-.2 0-.4.1-.6.1s-.5.1-.7.1c-.1 0-.1 0-.2.1-.4.1-.8.2-1.2.4-.2.1-.3.1-.5.2-.3.1-.6.3-.9.4-.2.1-.3.2-.5.3-.3.2-.6.4-.9.5-.1.1-.3.2-.4.3-.4.3-.8.6-1.1.9 0 0-.1 0-.1.1-4.7 4.1-4.9 9.7-4.9 9.7-.1.7 0 1.8.2 3.4.7 4.4 3.4 12.4 12 25.5l1.2 1.9 1.5-2.4c1.3-2 2.4-3.8 3.4-5.6l.1-.2c5.5-9.4 7.5-15.6 8.1-19.2.2-1.6.2-2.7.1-3.4z"/><ellipse class="st0" cx="212.7" cy="272.8" rx="7.5" ry="7.6"/><ellipse class="st2" cx="212.7" cy="272.8" rx="5.5" ry="5.5"/><path class="st0" d="M417.4 347.6L402.6 335l-17.7-15c-.7-.6-1.8-.6-2.6 0l-15.7 13.4v-7.2c0-.6-.4-1-1-1h-8.1c-.6 0-1 .4-1 1V342l-6.7 5.7c-1.4 1.2-.6 3.5 1.3 3.5h65c1.8-.1 2.7-2.4 1.3-3.6z"/><path class="st1" d="M808.1 329.2l-25.7-21.9-28.6-24.3c-.7-.6-1.8-.6-2.6 0l-28.1 23.9v-12c0-.6-.4-1-1-1h-11.3c-.6 0-1 .4-1 1v23.3l-12.9 11c-1.4 1.2-.6 3.5 1.3 3.5h108.6c1.9 0 2.7-2.3 1.3-3.5zm-87.4 14.3h19.8v19.8h-19.8v-19.8z"/><path class="st2" d="M729.6 343.5h2v20.7h-2v-20.7z"/><path class="st2" d="M720.2 352.8h20.7v2h-20.7v-2z"/><path class="st1" d="M495.9 347.2h8.9v9.4h-8.9v-9.4zm-10.9 0h8.9v9.4H485v-9.4zm0 11.4h8.9v8.4H485v-8.4zm10.9 0h8.9v8.4h-8.9v-8.4zM61.8 337.3h77.5V383H61.8v-45.7zm88.6-3.7l-22.7-19.3-25.8-22c-.8-.7-2-.7-2.8 0l-22.8 19.5v-8.9c0-.6-.5-1.1-1.1-1.1H63c-.6 0-1.1.5-1.1 1.1V324l-11.2 9.5c-1.5 1.3-.6 3.8 1.4 3.8H149c2 0 2.9-2.4 1.4-3.7z"/><path class="st2" d="M126.6 353.6h-15c-.6 0-1 .4-1 1V383h17v-28.5c0-.5-.4-.9-1-.9z"/><circle class="st1" cx="114.6" cy="368.8" r="1.3"/><path class="st0" d="M83.1 344.5h9.6v10.1h-9.6v-10.1zm-11.7 0H81v10.1h-9.6v-10.1zm0 12.2H81v9.1h-9.6v-9.1zm11.7 0h9.6v9.1h-9.6v-9.1zm287.3 1h5.3v5.6h-5.3v-5.6zm-6.6 0h5.3v5.6h-5.3v-5.6zm0 6.8h5.3v5.1h-5.3v-5.1zm6.6 0h5.3v5.1h-5.3v-5.1z"/><path class="st2" d="M181.6 346.5h62.1v36.6h-62.1v-36.6z"/><path class="st1" d="M233.4 359.4h-11.6c-.6 0-1 .4-1 1V383h13.6v-22.6c0-.5-.5-1-1-1z"/><circle class="st2" cx="223.9" cy="370.5" r="1.4"/><path class="st1" d="M251.4 342.4l-17-14.5-20.2-17.2c-.9-.7-2.1-.7-3 0l-18 15.3v-8.3c0-.6-.5-1.1-1.1-1.1h-9.3c-.6 0-1.1.5-1.1 1.1v18.1l-7.7 6.5c-1.6 1.4-.6 4 1.5 4h74.4c2.1.1 3.1-2.5 1.5-3.9zM196.9 354h6.1v6.5h-6.1V354zm-7.5 0h6.1v6.5h-6.1V354zm0 7.8h6.1v5.8h-6.1v-5.8zm7.5 0h6.1v5.8h-6.1v-5.8zm440.5-4c0-9.1-7.4-16.5-16.5-16.5s-16.5 7.4-16.5 16.5c0 8.7 6.7 15.8 15.3 16.5v8.8h2.6v-8.8c8.4-.7 15.1-7.8 15.1-16.5z"/><path class="st0" d="M315.9 358.6c0-1.6-.1-2.7-.1-2.7-.2-3.3-.9-8.2-3.1-14.7-.2-.5-.3-1-.5-1.5-1-3.1-2.1-6.1-3.4-8.4-2.7-5-5.1-4.8-6.8-3.4 0 0-3.6 1.5-7.8 18.2-1.1 4.1-1.5 7.3-1.6 9.7 0 0-.1 1.1-.1 2.7v.9c.1 1.8.3 4 .9 6.2.8 2.9 2.3 5.8 5.1 7.5 1 .6 2.2 1 3.5 1.2.4.1.8.1 1.1.2v8.4h2.3v-8.5c.3 0 .6-.1.8-.1 1.4-.2 2.5-.6 3.5-1.2 2.8-1.7 4.4-4.6 5.1-7.5.6-2.2.9-4.4.9-6.2v-.7c.2.1.2 0 .2-.1z"/><path class="st1" d="M338.1 354.1c0-1.9-.1-3.2-.1-3.2-.2-3.9-1.1-9.7-3.7-17.4l-.6-1.8c-1.1-3.7-2.5-7.3-4.1-9.9-3.2-5.9-6.1-5.7-8.1-4 0 0-4.3 1.8-9.3 21.6-1.2 4.8-1.8 8.7-1.9 11.6 0 0-.1 1.3-.1 3.2v1.1c.1 2.1.3 4.7 1.1 7.3.9 3.4 2.7 6.9 6.1 8.9 1.2.7 2.6 1.2 4.2 1.4.4.1.9.2 1.3.2v10h2.7v-10c.3 0 .7-.1 1-.2 1.6-.3 3-.8 4.2-1.4 3.4-2 5.2-5.5 6.1-8.9.8-2.6 1-5.2 1.1-7.3v-.8l.1-.4z"/></svg>