<svg id="Layer_1" xmlns="http://www.w3.org/2000/svg" viewBox="0 0 300 300"><style>.st0{fill:#F2F2F2;} .st1{fill:#FFFFFF;stroke:#F2F2F2;stroke-miterlimit:10;} .st2{fill:#D9AC28;} .st3{fill:#AB8B30;} .st4{fill:none;} .st5{enable-background:new ;} .st6{fill:#FFFFFF;} .st7{fill:#78787B;}</style><circle class="st0" cx="150.6" cy="149.9" r="126.4"/><path class="st1" d="M281.6 214.5l-251.5 20c-2.8.2-5.2-1.8-5.4-4.6L12.3 73c-.2-2.8 1.8-5.2 4.6-5.4l251.5-20c2.8-.2 5.2 1.8 5.4 4.6l12.5 156.9c.1 2.7-2 5.1-4.7 5.4z"/><path class="st2" d="M279.9 129.6l6.3 79.5c.2 2.8-1.8 5.2-4.6 5.4l-251.5 20c-2.8.2-5.2-1.8-5.4-4.6l-6.1-77.4 261.3-22.9z"/><path class="st3" d="M109.1 166.5l4.3-.3 2.9 36.9-4.3.3-2.9-36.9z"/><path class="st0" d="M167.1 68.1l-45.4 3.1c-.6 0-1.2-.4-1.2-1.1l-.2-2.3c0-.6.4-1.2 1.1-1.2l45.4-3.1c.6 0 1.2.4 1.2 1.1l.2 2.3c0 .6-.5 1.2-1.1 1.2z"/><path class="st4" d="M126.6 165l128.1-11.2 3.8 42.9-128.1 11.2-3.8-42.9z"/><path class="st5 st6" d="M140.6 166.1c.2.2.4.5.4.8.1.8-.6 1.5-1.4 1.5-.4 0-.8-.1-1.2-.4-.9-.8-2-1.2-3.1-1.1-2.7.2-4.4 2.4-4.2 5.2.2 2.8 2.3 4.6 5 4.4 1.1-.1 2.1-.7 2.9-1.6.3-.4.7-.6 1.1-.6.8-.1 1.5.5 1.5 1.2 0 .3 0 .6-.2.9-1 1.4-2.6 2.7-5.1 2.9-4.4.4-8-2.4-8.4-6.9-.4-4.5 2.7-7.9 7.1-8.2 2.6-.3 4.4.6 5.6 1.9zm11.5 11.6h-.2c-.2 0-1.2-.1-1.3-1.1-.6.9-1.9 1.5-3.2 1.7-1.7.1-3.8-.8-4-3.2-.2-2.5 1.7-3.6 3.4-3.7 1.4-.1 2.7.2 3.5 1l-.1-1.4c-.1-1.1-1.1-1.7-2.5-1.6-.8.1-1.6.3-2.3.9-.1.1-.3.2-.5.2-.5 0-1.1-.3-1.1-1 0-.2 0-.4.1-.6.6-1.1 2.9-1.8 4.1-1.9 2.4-.2 4.7.6 5 3.6l.5 5.6c-.1.8-.7 1.5-1.4 1.5zm-1.8-3.8c-.5-.6-1.4-.8-2.3-.7-1.1.1-1.9.7-1.9 1.8.1 1 1 1.5 2.1 1.4.9-.1 1.7-.5 2.2-1.1l-.1-1.4zm10.1-5.2c-.8.2-1.6.6-2.1 1.3l.5 5.7c.1.8-.5 1.4-1.2 1.5-.8.1-1.4-.5-1.5-1.3l-.7-8.1c-.1-.7.5-1.4 1.3-1.5.7-.1 1.4.5 1.5 1.2v.2c.5-.7 1.1-1.6 2.1-1.7.8-.1 1.3.4 1.3 1 .1 1-.4 1.5-1.2 1.7zm12 2.7l-6.5.6c.3 1.3 1.5 2.3 3.3 2.2.6-.1 1.4-.3 2-.7.2-.1.4-.2.5-.2.6-.1 1.2.4 1.3 1 .1 1.2-2.5 2-3.9 2.1-3.2.3-5.8-1.7-6.1-5.1-.3-3.1 1.8-5.7 5-6 2.4-.2 4.3 1 5.3 3.1.2.5.4 1 .4 1.6 0 .7-.5 1.3-1.3 1.4zm-4.3-3.9c-1.7.2-2.4 1.5-2.4 2.6l5.2-.5c-.1-1-1-2.3-2.8-2.1zm-30.6 27.2l-3.7.3.3 3.8c.1.8-.6 1.6-1.4 1.7-.8.1-1.6-.6-1.7-1.4l-1-11.5c-.1-1 .6-1.8 1.6-1.9l5.1-.4c3.2-.3 5.1 1.7 5.3 4.3.2 2.5-1.3 4.8-4.5 5.1zm-1-6.6l-3.3.3.3 3.9 3.3-.3c1.2-.1 2.1-1 2-2.2-.1-1.2-1.1-1.8-2.3-1.7zm12.5 2.7c-.8.2-1.6.6-2.1 1.3l.5 5.7c.1.8-.5 1.4-1.2 1.5-.8.1-1.4-.5-1.5-1.3l-.7-8.1c-.1-.7.5-1.4 1.3-1.5.7-.1 1.4.5 1.5 1.2v.2c.5-.7 1.1-1.6 2.1-1.7.8-.1 1.3.4 1.3 1 .1 1-.5 1.5-1.2 1.7zm8.5 7.7c-3.5.3-5.8-2.1-6.1-5.1-.3-3 1.6-5.7 5.1-6 3.5-.3 5.8 2.1 6.1 5.1.3 2.9-1.5 5.7-5.1 6zm-.7-8.7c-1.7.2-2.6 1.7-2.4 3.3.1 1.7 1.2 3 3 2.9 1.7-.2 2.6-1.7 2.4-3.3-.2-1.7-1.3-3-3-2.9zm16.9-1.9l-2.4 7.9c-.3.8-1 1.4-1.8 1.5-.9.1-1.7-.4-2.1-1.1l-3.8-7.4c-.1-.1-.1-.3-.2-.5-.1-.7.5-1.4 1.3-1.5.5 0 1.1.2 1.3.7l3.1 6.4 1.9-6.8c.2-.6.6-.9 1.2-1 .9-.1 1.5.6 1.5 1.3.1.2.1.3 0 .5zm4.6-5c.1.9-.6 1.7-1.5 1.8-.9.1-1.7-.6-1.8-1.5-.1-.9.6-1.7 1.5-1.8.9-.1 1.7.6 1.8 1.5zm-.5 13.7c-.8.1-1.4-.5-1.5-1.3l-.7-8.1c-.1-.7.5-1.4 1.3-1.5.7-.1 1.4.5 1.5 1.2l.7 8.1c.1.8-.5 1.5-1.3 1.6zm12.8-1.2c-.8.1-1.4-.5-1.5-1.3v-.1c-.7 1.1-1.9 1.8-3.1 1.9-2.7.2-4.9-1.6-5.2-5.1-.3-3.5 1.5-5.7 4.2-6 1.2-.1 2.5.3 3.4 1.3l-.4-4.1c-.1-.8.5-1.4 1.3-1.5.8-.1 1.4.5 1.5 1.3l1.1 12.1c.1.8-.4 1.5-1.3 1.5zm-2-7.1c-.5-.7-1.6-1.1-2.5-1-1.6.1-2.6 1.5-2.4 3.3.2 1.8 1.4 3 2.9 2.8.9-.1 1.9-.7 2.3-1.4l-.3-3.7zm14.6 1.5l-6.5.6c.3 1.3 1.5 2.3 3.3 2.2.6-.1 1.4-.3 2-.7.2-.1.4-.2.5-.2.6-.1 1.2.4 1.3 1 .1 1.2-2.5 2-3.9 2.1-3.2.3-5.8-1.7-6.1-5.1-.3-3.1 1.8-5.7 5-6 2.4-.2 4.3 1 5.3 3.1.2.5.4 1 .4 1.6-.1.7-.6 1.3-1.3 1.4zm-4.3-3.9c-1.7.2-2.4 1.5-2.4 2.6l5.2-.5c-.2-1-1-2.3-2.8-2.1zm12.3-.6c-.8.2-1.6.6-2.1 1.3l.5 5.7c.1.8-.5 1.4-1.2 1.5-.8.1-1.4-.5-1.5-1.3l-.7-8.1c-.1-.7.5-1.4 1.3-1.5.7-.1 1.4.5 1.5 1.2v.2c.5-.7 1.1-1.6 2.1-1.7.8-.1 1.3.4 1.3 1 .1 1-.5 1.6-1.2 1.7z"/><path class="st2" d="M94.4 116.1c-.5 0-.9-.3-1-.8l-.3-3.6-5.2.5.3 3.6c0 .5-.3.9-.8 1-.5 0-.9-.3-1-.8l-.7-8.5c0-.5.3-.9.8-1 .5 0 .9.3 1 .8l.3 3.3 5.2-.5-.3-3.3c0-.5.3-.9.8-1 .5 0 .9.3 1 .8l.7 8.5c.1.5-.3 1-.8 1zm5.5-6.7c-1.3.1-2 1.3-1.9 2.6.1 1.3.9 2.3 2.3 2.2 1.3-.1 2-1.3 1.9-2.6-.2-1.2-1-2.3-2.3-2.2zm.5 6.3c-2.3.2-3.9-1.4-4.1-3.5-.2-2.1 1.1-3.9 3.4-4.2 2.3-.2 3.9 1.4 4.1 3.5.2 2.1-1 4-3.4 4.2zm10.6-1c-.5 0-.8-.3-.9-.7v-.3c-.5.6-1.3 1.3-2.5 1.4-1.6.1-2.4-.6-2.6-2.1l-.4-4.5c0-.4.3-.8.8-.9.4 0 .8.3.9.7l.3 3.9c.1 1.1.7 1.4 1.6 1.3.8-.1 1.4-.6 1.8-1.1l-.4-4.4c0-.4.3-.8.8-.9.4 0 .8.3.9.7l.5 5.9c-.1.5-.4.9-.8 1zm5.2-.4c-1 .1-2.3-.1-2.9-.7-.1-.1-.2-.2-.2-.4 0-.4.3-.7.6-.7.1 0 .3 0 .4.1.6.3 1.4.5 2.1.5 1-.1 1.4-.5 1.3-1.1-.1-1.4-4.4 0-4.7-2.8-.1-1.2.8-2.3 2.7-2.5 1-.1 2.1.1 2.7.7.1.1.2.2.2.4 0 .3-.2.6-.6.7-.1 0-.2 0-.3-.1-.5-.3-1.1-.4-1.8-.4-.8.1-1.3.5-1.3 1 .1 1.3 4.4-.1 4.7 2.8 0 1.2-.9 2.3-2.9 2.5zm7.2-7.1c-1.3.1-1.9 1.2-1.9 2.1l4.1-.4c-.2-.7-.8-1.8-2.2-1.7zm3 2.9l-4.8.4c.2 1.1 1.1 1.9 2.5 1.8.5 0 1.1-.3 1.6-.6.1-.1.2-.1.3-.1.3 0 .7.2.7.6.1.8-1.8 1.4-2.7 1.5-2.2.2-4-1.2-4.2-3.5-.2-2.1 1.2-4 3.4-4.2 1.7-.2 3 .8 3.6 2.3l.3.9c.1.4-.2.8-.7.9zm7.6 2.5c-.3 0-.5-.1-.7-.3l-2.3-2.6-.9 1.1.1 1.2c0 .4-.3.8-.8.9-.5 0-.8-.3-.9-.7l-.8-8.7c0-.4.3-.8.8-.9.4 0 .8.3.9.7l.5 5.6 2.7-3.6c.1-.2.3-.3.5-.3.4 0 .8.3.8.7 0 .2 0 .4-.1.5l-1.8 2.3 2.4 2.6c.1.1.2.3.2.4.1.6-.1 1.1-.6 1.1zm4.7-6.7c-1.3.1-1.9 1.2-1.9 2.1l4.1-.4c-.1-.8-.8-1.8-2.2-1.7zm3 2.8l-4.8.4c.2 1.1 1.1 1.9 2.5 1.8.5 0 1.1-.3 1.6-.6.1-.1.2-.1.3-.1.3 0 .7.2.7.6.1.8-1.8 1.4-2.7 1.5-2.2.2-4-1.2-4.2-3.5-.2-2.1 1.2-4 3.4-4.2 1.7-.2 3 .8 3.6 2.3.1.3.2.6.3 1 .1.4-.2.8-.7.8zm5.3-3.5c-1.3.1-1.9 1.2-1.9 2.1l4.1-.4c-.2-.8-.8-1.8-2.2-1.7zm3 2.8l-4.8.4c.2 1.1 1.1 1.9 2.5 1.8.5 0 1.1-.3 1.6-.6.1-.1.2-.1.3-.1.3 0 .7.2.7.6.1.8-1.8 1.4-2.7 1.5-2.2.2-4-1.2-4.2-3.5-.2-2.1 1.2-4 3.4-4.2 1.7-.2 3 .8 3.6 2.3l.3.9c.1.5-.2.9-.7.9zm5.1-3.4c-.7.1-1.5.6-1.8 1.1l.2 2.9c.4.5 1.2.9 1.9.8 1.2-.1 2-1.2 1.8-2.6 0-1.4-.9-2.3-2.1-2.2zm1 6.2c-.9.1-1.8-.3-2.4-1l.3 3.1c0 .4-.3.8-.7.9-.5 0-.8-.3-.9-.7l-.8-8.7c0-.4.3-.8.8-.9.4 0 .8.3.9.7v.3c.5-.8 1.3-1.3 2.2-1.4 1.9-.2 3.4 1.1 3.6 3.5.1 2.5-1.1 4-3 4.2zm7.3-7.1c-1.3.1-1.9 1.2-1.9 2.1l4.1-.4c-.1-.8-.7-1.8-2.2-1.7zm3.1 2.8l-4.8.4c.2 1.1 1.1 1.9 2.5 1.8.5 0 1.1-.3 1.6-.6.1-.1.2-.1.3-.1.3 0 .7.2.7.6.1.8-1.8 1.4-2.7 1.5-2.2.2-4-1.2-4.2-3.5-.2-2.1 1.2-4 3.4-4.2 1.7-.2 3 .8 3.6 2.3l.3.9c.1.5-.2.9-.7.9zm5.3-3.2c-.6.1-1.2.4-1.6 1l.4 4.2c0 .4-.3.8-.7.9-.4 0-.8-.3-.9-.7l-.5-5.9c0-.4.3-.8.8-.9.4 0 .8.3.9.7v.4c.3-.6.9-1.2 1.6-1.3.4 0 .7.2.8.6-.1.6-.4.9-.8 1zm1.9 5.9c-.6.1-1.1-.4-1.2-1-.1-.6.4-1.1 1-1.2.6-.1 1.1.4 1.2 1 0 .6-.4 1.2-1 1.2zm8.2-1.5c-.5.5-1.2.9-2.3 1-2.2.2-3.9-1.3-4.1-3.5-.2-2.2 1.2-4 3.4-4.2 1.1-.1 2.1.2 2.6.8.1.1.1.2.1.3 0 .4-.3.7-.7.8-.2 0-.3 0-.5-.1-.4-.3-.8-.4-1.3-.3-1.3.1-2.1 1.2-2 2.6.1 1.4 1.1 2.3 2.4 2.2.5 0 .9-.2 1.2-.6.1-.1.3-.2.5-.2.4 0 .8.2.8.6.2.3.1.5-.1.6zm4.2-5.8c-1.3.1-2 1.3-1.9 2.6.1 1.3 1 2.3 2.3 2.2 1.3-.1 2-1.3 1.9-2.6-.1-1.3-1-2.3-2.3-2.2zm.5 6.2c-2.3.2-3.9-1.4-4.1-3.5-.2-2.1 1.1-3.9 3.4-4.2 2.3-.2 3.9 1.4 4.1 3.5.3 2.2-1 4-3.4 4.2zm14.6-1.3c-.4 0-.8-.3-.9-.7l-.4-4c-.1-.8-.4-1.3-1.3-1.2-.7.1-1.3.6-1.6 1.1l.4 4.4c0 .4-.3.8-.7.9-.5 0-.8-.3-.9-.7l-.4-4c-.1-.8-.5-1.3-1.3-1.2-.7.1-1.3.6-1.6 1.1l.4 4.4c0 .4-.3.8-.7.9-.5 0-.8-.3-.9-.7l-.5-5.9c0-.4.3-.8.8-.9.4 0 .8.3.9.7v.3c.3-.5 1.2-1.3 2.3-1.4 1.1-.1 1.8.4 2.1 1.2.4-.7 1.3-1.5 2.4-1.6 1.3-.1 2.2.5 2.3 2l.4 4.6c0 .2-.3.6-.8.7zM67.4 80.2l-29.6 2.6c-3.7.3-6.5 3.5-6.1 7.1l2.1 24c.4 4.1 1.9 7.9 4.4 10.9 4.3 5.5 11.4 8.7 19 8.1 7.6-.7 14-5.1 17.3-11.2 1.9-3.4 2.8-7.4 2.4-11.5l-2.1-24c-.4-3.7-3.7-6.3-7.4-6z"/><path class="st6" d="M66.5 88.1c-.2-.6-.6-1-1.1-1.3-.4-.2-.8-.3-1.2-.2-.8.1-1.4.5-1.8 1.2l-8.8 16.9c-1.5-.1-2.9.5-4 1.5-.7-.1-1.4.2-1.7.8-.1.2-.2.4-.2.6-.6 0-1.2.3-1.5.9-.2.4-.2.8-.1 1.2 0 .1.1.3.2.4l-3.8 4.3c-.3.4-.5.9-.4 1.3 0 .3.1.5.2.7v.1c.7 2.1 2.4 4.1 4.6 5.3l.1.1.3.1s.1 0 .2.1c1.7.8 3.6 1.2 5.3 1 .6-.1 1.1-.2 1.7-.3h.2l.3.9c.6 1.1 1.8 1.7 3 1.6.4 0 .8-.2 1.2-.3.3-.2.6-.4.8-.6.2.1.3.2.5.3 0 .2.1.3.2.5.3.6 1 1 1.8 1 .2 0 .5-.1.7-.2.9-.5 1.2-1.6.8-2.4-.2-.3-.4-.5-.7-.7 0-.3-.1-.7-.2-1-.4-.7-1.2-1.2-2-1.1-.2 0-.4.1-.5.1-.6-1.1-1.7-1.7-2.9-1.6-.3 0-.6.1-.9.2l.9-3.6c.6 0 1.1-.4 1.4-.9.2-.4.2-.8.1-1.2-.1-.2-.1-.3-.2-.5.2-.1.3-.3.4-.5.3-.7.2-1.4-.3-1.9.2-1.4-.2-2.9-1.1-4.1l8.8-16.9c-.1-.6-.1-1.2-.3-1.8z"/><path class="st3" d="M61.6 123.5c-.5.2-1 .1-1.2-.4-.2-.4-.1-1 .4-1.2.5-.2 1-.1 1.2.4.2.4 0 1-.4 1.2zm1 1.4c-.3.2-.7 0-.9-.3-.2-.3 0-.7.3-.9.3-.2.7 0 .9.3.1.3 0 .7-.3.9zm-4-.9c-.9.5-2.1.1-2.6-.8s-.1-2.1.8-2.6 2.1-.1 2.6.8.2 2.1-.8 2.6zm6.2-36.2c-.5-.2-1.1.1-1.4.6l-9.1 17.5c.3.1.7.2 1 .3h.2c.3.2.6.4.8.6l9.1-17.6c.3-.5 0-1.2-.6-1.4z"/><path class="st2" d="M49.1 108.7l-.4.5 8.1 4.2.2-.6.1-.5-7.7-4-.3.4zm8.4 2.2c.3-1.5-.2-3-1.3-4-.2-.2-.5-.4-.8-.6h-.2c-.3-.1-.6-.3-1-.3-1.5-.3-3 .2-4 1.2-.1.1-.2.2-.3.4l7.4 3.8c.1-.2.2-.3.2-.5zm-14.1 4.3c-.1.1-.2.3-.2.5s.1.4.2.6c.6 1.8 2.1 3.6 4.2 4.7 0 0 .1 0 .1.1 0 0 .1 0 .1.1 2.1 1 4.4 1.2 6.3.7.2-.1.4-.1.5-.2.2-.1.3-.2.3-.4l1.6-6.9L48 110l-4.6 5.2z"/><path class="st3" d="M57.8 111.6l-.4-.2-7.4-3.8-.4-.2c-.2-.1-.5 0-.6.2s0 .5.2.6l.2.1 7.7 4 .2.1c.2.1.5 0 .6-.2.2-.2.1-.5-.1-.6zm-.2 2.2l-.7-.4-8.1-4.2-.7-.4c-.2-.1-.5 0-.6.2-.1.2 0 .5.2.6l.5.3 8.5 4.4.5.3c.2.1.5 0 .6-.2.1-.2 0-.5-.2-.6z"/><path class="st7" d="M88.3 94.3c.9-.1 1.3.4 1.6.9l1.7-.8c-.6-1.3-1.7-2.1-3.5-1.9-2.2.2-3.5 2-3.3 4.3.2 2.3 1.9 3.9 4 3.7 1.8-.2 2.7-1.1 3.1-2.5l-1.8-.5c-.2.6-.6 1.1-1.4 1.2-1.1.1-1.8-.8-1.9-2.1-.1-1.2.4-2.2 1.5-2.3zm7.5 4.1c-.3.2-.6.3-.8.4-.4.1-.8 0-.8-.5 0-.4.2-.7.8-.8.2-.1.5-.1.7-.2 0-.1.1 1.1.1 1.1zm2-.2c-.1 0-.2-.1-.2-.3l-.2-2.1c-.1-1.1-.8-1.9-2.5-1.7-1.7.1-2.2.9-2.3 1.7l1.5.4c.2-.4.4-.7.9-.7.4 0 .7.1.7.5.1.5-1.1.6-1.7.7-.7.2-1.8.6-1.6 1.9.1 1.1.9 1.6 1.9 1.5.6-.1 1.3-.4 1.9-.9.1.5.5.6.9.6.5 0 1-.3 1.3-.4l-.1-1.2c-.3 0-.4.1-.5 0zm2.6-3.6c-.2-.6-.7-.8-1.1-.7-.5 0-1 .3-1.3.4l.1 1.3c.2 0 .3-.1.4-.1.1 0 .2.1.2.3l.3 3.7 1.8-.2-.3-3.4c.1-.2.3-.5.8-.6.3-.1.6 0 .8.1l.5-1.7c-.7-.3-1.9-.2-2.2.9zm3.8 1.4c0-.7.5-1.1 1-1.2.4-.1.9.1 1.2.5l-2.2.7zm.9-2.7c-1.4.1-2.7 1.2-2.6 3.2.2 1.8 1.4 2.8 3 2.7 1.2-.1 2.2-.8 2.5-2l-1.5-.4c-.2.5-.6.8-1.2.9-.5.1-.8-.1-1.1-.5l3.7-1.2c.1-2-1.4-2.9-2.8-2.7zm8.6 3.2c-.3.1-.8.2-1 .2-1.1.1-2-.6-2.1-2-.1-1.5.6-2.3 1.8-2.4.6-.1 1.2.1 1.7.6l1.1-1.4c-.8-.8-1.9-1.1-3-1-2.2.2-3.8 1.9-3.6 4.4.2 2.4 2 3.8 4.2 3.6 1-.1 2.2-.5 2.9-1.2l-.2-2.8-1.9.2c0-.1.1 1.8.1 1.8zm8.2-.4c-.1 0-.2-.1-.2-.3l-.3-3.7-1.8.2.3 3.6c-.2.2-.6.5-.9.5-.8.1-1-.5-1-1.3l-.2-2.7-1.8.2.3 3.6c.1 1.4 1 2 2 1.9.7-.1 1.4-.4 1.8-1.1.2.6.6.8 1.1.7s1-.3 1.3-.4l-.1-1.3c-.3 0-.4.1-.5.1zm1.7-4.4c-.5 0-1 .3-1.3.4l.1 1.3c.2 0 .3-.1.4-.1.1 0 .2.1.2.3l.3 3.7 1.8-.2-.4-4.6c0-.6-.6-.8-1.1-.8zm5.9 2.7c0 .5-.5 1.1-1.2 1.1-.7.1-1.2-.4-1.2-1.2-.1-.9.3-1.4 1-1.4.5 0 1.1.2 1.3.6l.1.9zm2.1.8c-.1 0-.2-.1-.2-.3l-.6-6.4-1.8.2.3 2.9c-.4-.3-.9-.5-1.5-.4-1.5.1-2.5 1.5-2.3 3.2.1 1.6 1.3 2.8 2.8 2.7.8-.1 1.3-.4 1.7-.9.1.6.4.7.9.7s1-.3 1.3-.4l-.1-1.3h-.5zm3.1-3.1c.5-.1.9.1 1.2.5l-2.2.7c0-.6.5-1.1 1-1.2zm.4 2.9c-.5.1-.8-.1-1.1-.5l3.7-1.2c-.2-1.9-1.6-2.8-3-2.7-1.4.1-2.7 1.2-2.6 3.2.2 1.8 1.4 2.8 3 2.7 1.2-.1 2.2-.8 2.5-2l-1.5-.4c-.1.6-.5.9-1 .9zm-11.2-6.1c-.2 0-.4.2-.5.3-.1-.2-.3-.3-.6-.3-.4 0-.6.3-.6.7 0 .1 0 .1.1.2.2.6 1.3 1.2 1.3 1.2s.9-.8 1.1-1.4v-.2c-.2-.3-.5-.6-.8-.5z"/></svg>