<svg id="Layer_1" xmlns="http://www.w3.org/2000/svg" viewBox="0 0 300 300"><style>.st0{fill:#F2F2F2;} .st1{fill:none;stroke:#FFFFFF;stroke-width:8;stroke-linecap:round;stroke-linejoin:round;stroke-miterlimit:10;} .st2{fill:#FFFFFF;} .st3{fill:none;stroke:#F2F2F2;stroke-miterlimit:10;} .st4{fill:#EF483D;} .st5{fill:#F04A3F;} .st6{fill:#D0202F;} .st7{fill:#79797B;} .st8{fill:#18BFD5;} .st9{fill:#008FBE;} .st10{fill:#CF2030;} .st11{fill:#A17CB7;} .st12{fill:#834D9E;} .st13{fill:#799A3D;} .st14{fill:#5B632C;} .st15{fill:#DBAB27;} .st16{fill:#AB8B30;} .st17{fill:#F47E42;} .st18{fill:#E55625;} .st19{clip-path:url(#SVGID_2_);} .st20{fill:#231F20;} .st21{fill:#D2C8A0;} .st22{fill:#DCD3AE;} .st23{fill:#010101;} .st24{fill:#3B2416;} .st25{fill:#4D4943;} .st26{clip-path:url(#SVGID_4_);} .st27{clip-path:url(#SVGID_6_);} .st28{clip-path:url(#SVGID_8_);} .st29{clip-path:url(#SVGID_10_);}</style><circle class="st0" cx="152.1" cy="150" r="126.4"/><path class="st1" d="M280.4 218c0-2.8-.2-4.6-.2-4.6-.2-4.2-1-9.8-2.8-16.8-7.2-28.8-13.5-31.5-13.5-31.5-2.9-2.4-7.1-2.8-11.8 5.9-2.3 3.8-4.3 9.1-6 14.4-.3.9-.6 1.8-.8 2.7-.1.4-.3.9-.4 1.3-.6-4.5-1.6-9.8-3.2-15.9-9.9-39.3-18.4-42.9-18.4-42.9-4-3.2-9.6-3.8-16.1 8-3.2 5.2-5.9 12.4-8.1 19.7-.4 1.2-.8 2.4-1.1 3.6-.9 2.6-1.6 5.1-2.3 7.5l-9.8-8.3-37.4-31.9c-1-.8-2.4-.8-3.4 0l-36.7 31.3v-15.6c0-.7-.6-1.3-1.3-1.3H92.2c-.7 0-1.3.6-1.3 1.3V172c-1.6-7.1-8-12.4-15.6-12.4-1.6-7.2-8-12.6-15.7-12.6-7.7 0-14.1 5.4-15.7 12.6h-.4c-8.9 0-16.1 7.2-16.1 16.1 0 2 .4 3.9 1 5.6-5.3 2.6-8.9 8.1-8.9 14.4 0 7.1 4.7 13.2 11.1 15.3.4 8.5 7.4 15.4 16 15.4 3.9 0 7.5-1.4 10.2-3.7v36h4.4V222c2.7 2 6 3.3 9.7 3.3 8.5 0 15.4-6.6 16-14.9 1.4-.6 2.7-1.4 3.8-2.4v52.3h111.7v-24.6c.7.5 1.3 1 2.1 1.4 0 0 .1 0 .1.1 2.4 1.4 5.1 2.4 8.3 2.9.6.2 1.3.3 2 .4v19.9h5.5v-19.8c.9-.1 1.8-.2 2.7-.4 3.2-.5 5.9-1.5 8.3-2.9 0 0 .1 0 .1-.1 4.1-2.4 7-5.9 9-9.8.2 1 .4 2 .7 3 1.3 5 3.9 10 8.9 12.9l.1.1c1.7 1 3.7 1.7 6.1 2.1.5.1 1 .2 1.4.3v14.6h4v-14.6c.7-.1 1.3-.2 2-.3 2.3-.4 4.4-1.1 6.1-2.1l.1-.1c4.9-2.9 7.5-7.9 8.9-12.9 1.1-3.8 1.5-7.6 1.6-10.6V218zM125.2 72.7c1.2 7.3 5.6 20.5 19.7 42l1.9 3.1 2.4-3.9c2.1-3.2 4-6.3 5.7-9.2l.2-.3c9.1-15.5 12.3-25.7 13.3-31.6v-.1c.4-2.6.4-4.5.4-5.6 0 0-.3-9.3-8-16l-.1-.1-1.8-1.5c-.2-.2-.4-.3-.7-.4-.5-.3-.9-.6-1.4-.9-.3-.2-.5-.3-.8-.4-.5-.2-1-.5-1.5-.7-.3-.1-.5-.2-.8-.3-.7-.2-1.3-.4-2-.6-.1 0-.2-.1-.3-.1h-.1c-.4-.1-.8-.1-1.2-.2-.3-.1-.7-.1-1-.2-.5-.1-1-.1-1.6-.1h-1.4c-.5 0-1 0-1.6.1-.3 0-.7.1-1 .2-.4.1-.8.1-1.2.2h-.1c-.1 0-.2.1-.3.1-.7.2-1.4.4-2 .6-.3.1-.5.2-.8.3-.5.2-1 .4-1.5.7-.3.1-.5.3-.8.4-.5.3-1 .6-1.4.9-.2.1-.4.3-.7.4-.6.5-1.3 1-1.8 1.5l-.1.1c-7.8 6.7-8 16-8 16 0 1.2 0 3 .4 5.6z"/><path class="st15" d="M96.6 195.7c0-5.4-2.7-10.2-6.9-13.1 1-2.1 1.6-4.4 1.6-6.9 0-8.8-7.2-16-16-16.1-1.6-7.2-8-12.6-15.7-12.6-7.7 0-14.1 5.4-15.7 12.6h-.4c-8.9 0-16.1 7.2-16.1 16.1 0 2 .4 3.9 1 5.6-5.3 2.6-8.9 8.1-8.9 14.4 0 7.1 4.7 13.2 11.1 15.3.4 8.5 7.4 15.4 16 15.4 3.9 0 7.5-1.4 10.2-3.7v36h4.4V222c2.7 2 6 3.3 9.7 3.3 8.5 0 15.4-6.6 16-14.9 5.8-2.6 9.7-8.2 9.7-14.7zm93.8 7c0-3.8.3-6.3.3-6.3.5-7.8 2.2-19.3 7.3-34.5.4-1.2.7-2.4 1.1-3.6 2.2-7.3 5-14.4 8.1-19.7 6.4-11.8 12.1-11.2 16.1-8 0 0 8.6 3.6 18.4 42.9 2.5 9.6 3.5 17.3 3.8 22.9 0 0 .3 2.5.3 6.3v2.2c-.1 4.2-.7 9.3-2.2 14.5-1.8 6.8-5.4 13.7-12.1 17.6 0 0-.1 0-.1.1-2.4 1.4-5.1 2.4-8.3 2.9-.9.2-1.8.3-2.7.4v19.8H215v-19.9c-.7-.1-1.3-.2-2-.4-3.2-.5-5.9-1.5-8.3-2.9 0 0-.1 0-.1-.1-6.7-3.9-10.2-10.8-12.1-17.6-1.5-5.2-2-10.4-2.2-14.5v-2c.1 0 .1-.1.1-.1z"/><path class="st16" d="M239.7 218c0-2.8.2-4.6.2-4.6.3-5.7 1.6-14.2 5.3-25.3.3-.9.5-1.7.8-2.7 1.6-5.3 3.6-10.6 6-14.4 4.7-8.7 8.9-8.2 11.8-5.9 0 0 6.3 2.6 13.5 31.5 1.8 7 2.6 12.7 2.8 16.8 0 0 .2 1.8.2 4.6v1.6c-.1 3-.5 6.9-1.6 10.6-1.3 5-3.9 10-8.9 12.9l-.1.1c-1.7 1-3.7 1.7-6.1 2.1-.6.2-1.3.3-2 .3v14.6h-4v-14.6c-.5-.1-1-.1-1.4-.3-2.3-.4-4.4-1.1-6.1-2.1l-.1-.1c-4.9-2.9-7.5-7.9-8.9-12.9-1.1-3.8-1.5-7.6-1.6-10.6v-1.4c.2-.1.2-.2.2-.2z"/><path class="st2" d="M90.9 194.3h111.7v65.9H90.9z"/><path class="st16" d="M184.8 217.7h-22.5c-.6 0-1 .4-1 1v41.5h24.5v-41.5c0-.6-.4-1-1-1z"/><circle class="st2" cx="167.5" cy="238.9" r="2.5"/><path class="st15" d="M168.7 67.1s-.3-9.3-8-16l-.1-.1-1.8-1.5c-.2-.2-.4-.3-.7-.4-.5-.3-.9-.6-1.4-.9-.3-.2-.5-.3-.8-.4-.5-.2-1-.5-1.5-.7-.3-.1-.5-.2-.8-.3-.7-.2-1.3-.4-2-.6-.1 0-.2-.1-.3-.1h-.1c-.4-.1-.8-.1-1.2-.2-.3-.1-.7-.1-1-.2-.5-.1-1-.1-1.6-.1H146c-.5 0-1 0-1.6.1-.3 0-.7.1-1 .2-.4.1-.8.1-1.2.2h-.1c-.1 0-.2.1-.3.1-.7.2-1.4.4-2 .6-.3.1-.5.2-.8.3-.5.2-1 .4-1.5.7-.3.1-.5.3-.8.4-.5.3-1 .6-1.4.9-.2.1-.4.3-.7.4-.6.5-1.3 1-1.8 1.5l-.1.1c-7.8 6.7-8 16-8 16-.1 1.2-.1 3 .4 5.6v.1c1.2 7.2 5.6 20.4 19.7 41.9l1.9 3.1 2.4-3.9c2.1-3.2 4-6.3 5.7-9.2l.2-.3c9.1-15.5 12.3-25.7 13.3-31.6v-.1c.5-2.6.5-4.4.4-5.6z"/><ellipse class="st16" cx="146.8" cy="67.8" rx="12.4" ry="12.5"/><ellipse class="st2" cx="146.8" cy="67.8" rx="9" ry="9.1"/><path class="st16" d="M219.6 189.7L185.9 161l-37.4-31.9c-1-.8-2.4-.8-3.4 0l-36.7 31.3v-15.6c0-.7-.6-1.3-1.3-1.3H92.2c-.7 0-1.3.6-1.3 1.3v30.5L74 189.7c-1.9 1.6-.7 4.6 1.7 4.6h142.2c2.4 0 3.5-3 1.7-4.6zm-114.4 18.7h25.9v25.9h-25.9z"/><path class="st2" d="M116.8 208.4h2.6v27.1h-2.6z"/><path class="st2" d="M104.6 220.7h27.1v2.6h-27.1z"/></svg>