<?xml version="1.0" encoding="UTF-8" standalone="no"?>
<svg
   xmlns:dc="http://purl.org/dc/elements/1.1/"
   xmlns:cc="http://creativecommons.org/ns#"
   xmlns:rdf="http://www.w3.org/1999/02/22-rdf-syntax-ns#"
   xmlns:svg="http://www.w3.org/2000/svg"
   xmlns="http://www.w3.org/2000/svg"
   xmlns:sodipodi="http://sodipodi.sourceforge.net/DTD/sodipodi-0.dtd"
   xmlns:inkscape="http://www.inkscape.org/namespaces/inkscape"
   id="Layer_1"
   viewBox="0 0 300 300"
   version="1.1"
   sodipodi:docname="care.svg"
   inkscape:version="0.92.2 (5c3e80d, 2017-08-06)">
  <metadata
     id="metadata3805">
    <rdf:RDF>
      <cc:Work
         rdf:about="">
        <dc:format>image/svg+xml</dc:format>
        <dc:type
           rdf:resource="http://purl.org/dc/dcmitype/StillImage" />
      </cc:Work>
    </rdf:RDF>
  </metadata>
  <defs
     id="defs3803" />
  <sodipodi:namedview
     pagecolor="#ffffff"
     bordercolor="#666666"
     borderopacity="1"
     objecttolerance="10"
     gridtolerance="10"
     guidetolerance="10"
     inkscape:pageopacity="0"
     inkscape:pageshadow="2"
     inkscape:window-width="1280"
     inkscape:window-height="736"
     id="namedview3801"
     showgrid="false"
     inkscape:zoom="1.72"
     inkscape:cx="246.55496"
     inkscape:cy="150"
     inkscape:window-x="0"
     inkscape:window-y="27"
     inkscape:window-maximized="1"
     inkscape:current-layer="Layer_1" />
  <style
     id="style3772">.st0{fill:#F2F2F2;} .st1{fill:#FFFFFF;stroke:#F2F2F2;stroke-miterlimit:10;} .st2{fill:#D9AC28;} .st3{fill:#AB8B30;} .st4{fill:none;} .st5{enable-background:new ;} .st6{fill:#FFFFFF;} .st7{fill:#78787B;}</style>
  <circle
     class="st0"
     cx="150.6"
     cy="149.9"
     r="126.4"
     id="circle3774" />
  <path
     class="st1"
     d="m 281.0186,211.59302 -251.499995,20 c -2.8,0.2 -5.2,-1.8 -5.4,-4.6 l -12.4,-156.899997 c -0.2,-2.8 1.8,-5.2 4.6,-5.4 l 251.499995,-20 c 2.8,-0.2 5.2,1.8 5.4,4.6 l 12.5,156.899997 c 0.1,2.7 -2,5.1 -4.7,5.4 z"
     id="path3776"
     inkscape:connector-curvature="0"
     style="fill:#ffffff;stroke:#f2f2f2;stroke-miterlimit:10" />
  <path
     class="st2"
     d="M279.9 129.6l6.3 79.5c.2 2.8-1.8 5.2-4.6 5.4l-251.5 20c-2.8.2-5.2-1.8-5.4-4.6l-6.1-77.4 261.3-22.9z"
     id="path3778" />
  <path
     class="st3"
     d="M109.1 166.5l4.3-.3 2.9 36.9-4.3.3-2.9-36.9z"
     id="path3780" />
  <path
     class="st0"
     d="M167.1 68.1l-45.4 3.1c-.6 0-1.2-.4-1.2-1.1l-.2-2.3c0-.6.4-1.2 1.1-1.2l45.4-3.1c.6 0 1.2.4 1.2 1.1l.2 2.3c0 .6-.5 1.2-1.1 1.2z"
     id="path3782" />
  <path
     class="st4"
     d="M126.6 165l128.1-11.2 3.8 42.9-128.1 11.2-3.8-42.9z"
     id="path3784" />
  <path
     class="st5 st6"
     d="M140.6 166.1c.2.2.4.5.4.8.1.8-.6 1.5-1.4 1.5-.4 0-.8-.1-1.2-.4-.9-.8-2-1.2-3.1-1.1-2.7.2-4.4 2.4-4.2 5.2.2 2.8 2.3 4.6 5 4.4 1.1-.1 2.1-.7 2.9-1.6.3-.4.7-.6 1.1-.6.8-.1 1.5.5 1.5 1.2 0 .3 0 .6-.2.9-1 1.4-2.6 2.7-5.1 2.9-4.4.4-8-2.4-8.4-6.9-.4-4.5 2.7-7.9 7.1-8.2 2.6-.3 4.4.6 5.6 1.9zm11.5 11.6h-.2c-.2 0-1.2-.1-1.3-1.1-.6.9-1.9 1.5-3.2 1.7-1.7.1-3.8-.8-4-3.2-.2-2.5 1.7-3.6 3.4-3.7 1.4-.1 2.7.2 3.5 1l-.1-1.4c-.1-1.1-1.1-1.7-2.5-1.6-.8.1-1.6.3-2.3.9-.1.1-.3.2-.5.2-.5 0-1.1-.3-1.1-1 0-.2 0-.4.1-.6.6-1.1 2.9-1.8 4.1-1.9 2.4-.2 4.7.6 5 3.6l.5 5.6c-.1.8-.7 1.5-1.4 1.5zm-1.8-3.8c-.5-.6-1.4-.8-2.3-.7-1.1.1-1.9.7-1.9 1.8.1 1 1 1.5 2.1 1.4.9-.1 1.7-.5 2.2-1.1l-.1-1.4zm10.1-5.2c-.8.2-1.6.6-2.1 1.3l.5 5.7c.1.8-.5 1.4-1.2 1.5-.8.1-1.4-.5-1.5-1.3l-.7-8.1c-.1-.7.5-1.4 1.3-1.5.7-.1 1.4.5 1.5 1.2v.2c.5-.7 1.1-1.6 2.1-1.7.8-.1 1.3.4 1.3 1 .1 1-.4 1.5-1.2 1.7zm12 2.7l-6.5.6c.3 1.3 1.5 2.3 3.3 2.2.6-.1 1.4-.3 2-.7.2-.1.4-.2.5-.2.6-.1 1.2.4 1.3 1 .1 1.2-2.5 2-3.9 2.1-3.2.3-5.8-1.7-6.1-5.1-.3-3.1 1.8-5.7 5-6 2.4-.2 4.3 1 5.3 3.1.2.5.4 1 .4 1.6 0 .7-.5 1.3-1.3 1.4zm-4.3-3.9c-1.7.2-2.4 1.5-2.4 2.6l5.2-.5c-.1-1-1-2.3-2.8-2.1zm-30.6 27.2l-3.7.3.3 3.8c.1.8-.6 1.6-1.4 1.7-.8.1-1.6-.6-1.7-1.4l-1-11.5c-.1-1 .6-1.8 1.6-1.9l5.1-.4c3.2-.3 5.1 1.7 5.3 4.3.2 2.5-1.3 4.8-4.5 5.1zm-1-6.6l-3.3.3.3 3.9 3.3-.3c1.2-.1 2.1-1 2-2.2-.1-1.2-1.1-1.8-2.3-1.7zm12.5 2.7c-.8.2-1.6.6-2.1 1.3l.5 5.7c.1.8-.5 1.4-1.2 1.5-.8.1-1.4-.5-1.5-1.3l-.7-8.1c-.1-.7.5-1.4 1.3-1.5.7-.1 1.4.5 1.5 1.2v.2c.5-.7 1.1-1.6 2.1-1.7.8-.1 1.3.4 1.3 1 .1 1-.5 1.5-1.2 1.7zm8.5 7.7c-3.5.3-5.8-2.1-6.1-5.1-.3-3 1.6-5.7 5.1-6 3.5-.3 5.8 2.1 6.1 5.1.3 2.9-1.5 5.7-5.1 6zm-.7-8.7c-1.7.2-2.6 1.7-2.4 3.3.1 1.7 1.2 3 3 2.9 1.7-.2 2.6-1.7 2.4-3.3-.2-1.7-1.3-3-3-2.9zm16.9-1.9l-2.4 7.9c-.3.8-1 1.4-1.8 1.5-.9.1-1.7-.4-2.1-1.1l-3.8-7.4c-.1-.1-.1-.3-.2-.5-.1-.7.5-1.4 1.3-1.5.5 0 1.1.2 1.3.7l3.1 6.4 1.9-6.8c.2-.6.6-.9 1.2-1 .9-.1 1.5.6 1.5 1.3.1.2.1.3 0 .5zm4.6-5c.1.9-.6 1.7-1.5 1.8-.9.1-1.7-.6-1.8-1.5-.1-.9.6-1.7 1.5-1.8.9-.1 1.7.6 1.8 1.5zm-.5 13.7c-.8.1-1.4-.5-1.5-1.3l-.7-8.1c-.1-.7.5-1.4 1.3-1.5.7-.1 1.4.5 1.5 1.2l.7 8.1c.1.8-.5 1.5-1.3 1.6zm12.8-1.2c-.8.1-1.4-.5-1.5-1.3v-.1c-.7 1.1-1.9 1.8-3.1 1.9-2.7.2-4.9-1.6-5.2-5.1-.3-3.5 1.5-5.7 4.2-6 1.2-.1 2.5.3 3.4 1.3l-.4-4.1c-.1-.8.5-1.4 1.3-1.5.8-.1 1.4.5 1.5 1.3l1.1 12.1c.1.8-.4 1.5-1.3 1.5zm-2-7.1c-.5-.7-1.6-1.1-2.5-1-1.6.1-2.6 1.5-2.4 3.3.2 1.8 1.4 3 2.9 2.8.9-.1 1.9-.7 2.3-1.4l-.3-3.7zm14.6 1.5l-6.5.6c.3 1.3 1.5 2.3 3.3 2.2.6-.1 1.4-.3 2-.7.2-.1.4-.2.5-.2.6-.1 1.2.4 1.3 1 .1 1.2-2.5 2-3.9 2.1-3.2.3-5.8-1.7-6.1-5.1-.3-3.1 1.8-5.7 5-6 2.4-.2 4.3 1 5.3 3.1.2.5.4 1 .4 1.6-.1.7-.6 1.3-1.3 1.4zm-4.3-3.9c-1.7.2-2.4 1.5-2.4 2.6l5.2-.5c-.2-1-1-2.3-2.8-2.1zm12.3-.6c-.8.2-1.6.6-2.1 1.3l.5 5.7c.1.8-.5 1.4-1.2 1.5-.8.1-1.4-.5-1.5-1.3l-.7-8.1c-.1-.7.5-1.4 1.3-1.5.7-.1 1.4.5 1.5 1.2v.2c.5-.7 1.1-1.6 2.1-1.7.8-.1 1.3.4 1.3 1 .1 1-.5 1.6-1.2 1.7z"
     id="path3786" />
  <path
     id="path3788"
     style="fill:#d9ac28"
     d="m 70.995189,83.084302 c -0.22752,-0.003 -0.45625,0.005 -0.6875,0.0234 l -29.60157,2.59961 c -3.7,0.3 -6.49961,3.49961 -6.09961,7.09961 l 2.09961,23.999998 c 0.4,4.1 1.90039,7.90039 4.40039,10.90039 4.3,5.5 11.4,8.69961 19,8.09961 7.6,-0.7 14.00079,-5.09922 17.30079,-11.19922 1.9,-3.4 2.80039,-7.4 2.40039,-11.5 l -2.10157,-23.999998 c -0.375,-3.46875 -3.29821,-5.97144 -6.71093,-6.02344 z M 198.30573,103.51985 c -0.22581,0.003 -0.45629,0.005 -0.67773,0.008 0.0418,0.0901 0.0901,0.18587 0.1289,0.27344 0.18005,-0.10079 0.36435,-0.18801 0.54883,-0.28125 z m 1.78516,3.4082 c -0.27767,0.0531 -0.42203,0.17697 -0.20508,0.41602 0.20821,-0.1897 0.18705,-0.1718 0.22461,-0.20704 z m -11.90234,3.69922 c 0.002,0.006 0.004,0.0117 0.006,0.0176 -0.005,0.0822 -0.0222,0.16253 -0.0312,0.24414 0.31425,0.0772 0.64843,0.11804 1.00195,0.11523 -0.13268,-0.11357 -0.26585,-0.22631 -0.39258,-0.34765 -0.19463,-0.0111 -0.38933,-0.0196 -0.58398,-0.0293 z"
     inkscape:connector-curvature="0" />
  <path
     class="st6"
     d="M66.5 88.1c-.2-.6-.6-1-1.1-1.3-.4-.2-.8-.3-1.2-.2-.8.1-1.4.5-1.8 1.2l-8.8 16.9c-1.5-.1-2.9.5-4 1.5-.7-.1-1.4.2-1.7.8-.1.2-.2.4-.2.6-.6 0-1.2.3-1.5.9-.2.4-.2.8-.1 1.2 0 .1.1.3.2.4l-3.8 4.3c-.3.4-.5.9-.4 1.3 0 .3.1.5.2.7v.1c.7 2.1 2.4 4.1 4.6 5.3l.1.1.3.1s.1 0 .2.1c1.7.8 3.6 1.2 5.3 1 .6-.1 1.1-.2 1.7-.3h.2l.3.9c.6 1.1 1.8 1.7 3 1.6.4 0 .8-.2 1.2-.3.3-.2.6-.4.8-.6.2.1.3.2.5.3 0 .2.1.3.2.5.3.6 1 1 1.8 1 .2 0 .5-.1.7-.2.9-.5 1.2-1.6.8-2.4-.2-.3-.4-.5-.7-.7 0-.3-.1-.7-.2-1-.4-.7-1.2-1.2-2-1.1-.2 0-.4.1-.5.1-.6-1.1-1.7-1.7-2.9-1.6-.3 0-.6.1-.9.2l.9-3.6c.6 0 1.1-.4 1.4-.9.2-.4.2-.8.1-1.2-.1-.2-.1-.3-.2-.5.2-.1.3-.3.4-.5.3-.7.2-1.4-.3-1.9.2-1.4-.2-2.9-1.1-4.1l8.8-16.9c-.1-.6-.1-1.2-.3-1.8z"
     id="path3790" />
  <path
     class="st3"
     d="M61.6 123.5c-.5.2-1 .1-1.2-.4-.2-.4-.1-1 .4-1.2.5-.2 1-.1 1.2.4.2.4 0 1-.4 1.2zm1 1.4c-.3.2-.7 0-.9-.3-.2-.3 0-.7.3-.9.3-.2.7 0 .9.3.1.3 0 .7-.3.9zm-4-.9c-.9.5-2.1.1-2.6-.8s-.1-2.1.8-2.6 2.1-.1 2.6.8.2 2.1-.8 2.6zm6.2-36.2c-.5-.2-1.1.1-1.4.6l-9.1 17.5c.3.1.7.2 1 .3h.2c.3.2.6.4.8.6l9.1-17.6c.3-.5 0-1.2-.6-1.4z"
     id="path3792" />
  <path
     class="st2"
     d="M49.1 108.7l-.4.5 8.1 4.2.2-.6.1-.5-7.7-4-.3.4zm8.4 2.2c.3-1.5-.2-3-1.3-4-.2-.2-.5-.4-.8-.6h-.2c-.3-.1-.6-.3-1-.3-1.5-.3-3 .2-4 1.2-.1.1-.2.2-.3.4l7.4 3.8c.1-.2.2-.3.2-.5zm-14.1 4.3c-.1.1-.2.3-.2.5s.1.4.2.6c.6 1.8 2.1 3.6 4.2 4.7 0 0 .1 0 .1.1 0 0 .1 0 .1.1 2.1 1 4.4 1.2 6.3.7.2-.1.4-.1.5-.2.2-.1.3-.2.3-.4l1.6-6.9L48 110l-4.6 5.2z"
     id="path3794" />
  <path
     class="st3"
     d="M57.8 111.6l-.4-.2-7.4-3.8-.4-.2c-.2-.1-.5 0-.6.2s0 .5.2.6l.2.1 7.7 4 .2.1c.2.1.5 0 .6-.2.2-.2.1-.5-.1-.6zm-.2 2.2l-.7-.4-8.1-4.2-.7-.4c-.2-.1-.5 0-.6.2-.1.2 0 .5.2.6l.5.3 8.5 4.4.5.3c.2.1.5 0 .6-.2.1-.2 0-.5-.2-.6z"
     id="path3796" />
  <path
     class="st7"
     d="M88.3 94.3c.9-.1 1.3.4 1.6.9l1.7-.8c-.6-1.3-1.7-2.1-3.5-1.9-2.2.2-3.5 2-3.3 4.3.2 2.3 1.9 3.9 4 3.7 1.8-.2 2.7-1.1 3.1-2.5l-1.8-.5c-.2.6-.6 1.1-1.4 1.2-1.1.1-1.8-.8-1.9-2.1-.1-1.2.4-2.2 1.5-2.3zm7.5 4.1c-.3.2-.6.3-.8.4-.4.1-.8 0-.8-.5 0-.4.2-.7.8-.8.2-.1.5-.1.7-.2 0-.1.1 1.1.1 1.1zm2-.2c-.1 0-.2-.1-.2-.3l-.2-2.1c-.1-1.1-.8-1.9-2.5-1.7-1.7.1-2.2.9-2.3 1.7l1.5.4c.2-.4.4-.7.9-.7.4 0 .7.1.7.5.1.5-1.1.6-1.7.7-.7.2-1.8.6-1.6 1.9.1 1.1.9 1.6 1.9 1.5.6-.1 1.3-.4 1.9-.9.1.5.5.6.9.6.5 0 1-.3 1.3-.4l-.1-1.2c-.3 0-.4.1-.5 0zm2.6-3.6c-.2-.6-.7-.8-1.1-.7-.5 0-1 .3-1.3.4l.1 1.3c.2 0 .3-.1.4-.1.1 0 .2.1.2.3l.3 3.7 1.8-.2-.3-3.4c.1-.2.3-.5.8-.6.3-.1.6 0 .8.1l.5-1.7c-.7-.3-1.9-.2-2.2.9zm3.8 1.4c0-.7.5-1.1 1-1.2.4-.1.9.1 1.2.5l-2.2.7zm.9-2.7c-1.4.1-2.7 1.2-2.6 3.2.2 1.8 1.4 2.8 3 2.7 1.2-.1 2.2-.8 2.5-2l-1.5-.4c-.2.5-.6.8-1.2.9-.5.1-.8-.1-1.1-.5l3.7-1.2c.1-2-1.4-2.9-2.8-2.7zm8.6 3.2c-.3.1-.8.2-1 .2-1.1.1-2-.6-2.1-2-.1-1.5.6-2.3 1.8-2.4.6-.1 1.2.1 1.7.6l1.1-1.4c-.8-.8-1.9-1.1-3-1-2.2.2-3.8 1.9-3.6 4.4.2 2.4 2 3.8 4.2 3.6 1-.1 2.2-.5 2.9-1.2l-.2-2.8-1.9.2c0-.1.1 1.8.1 1.8zm8.2-.4c-.1 0-.2-.1-.2-.3l-.3-3.7-1.8.2.3 3.6c-.2.2-.6.5-.9.5-.8.1-1-.5-1-1.3l-.2-2.7-1.8.2.3 3.6c.1 1.4 1 2 2 1.9.7-.1 1.4-.4 1.8-1.1.2.6.6.8 1.1.7s1-.3 1.3-.4l-.1-1.3c-.3 0-.4.1-.5.1zm1.7-4.4c-.5 0-1 .3-1.3.4l.1 1.3c.2 0 .3-.1.4-.1.1 0 .2.1.2.3l.3 3.7 1.8-.2-.4-4.6c0-.6-.6-.8-1.1-.8zm5.9 2.7c0 .5-.5 1.1-1.2 1.1-.7.1-1.2-.4-1.2-1.2-.1-.9.3-1.4 1-1.4.5 0 1.1.2 1.3.6l.1.9zm2.1.8c-.1 0-.2-.1-.2-.3l-.6-6.4-1.8.2.3 2.9c-.4-.3-.9-.5-1.5-.4-1.5.1-2.5 1.5-2.3 3.2.1 1.6 1.3 2.8 2.8 2.7.8-.1 1.3-.4 1.7-.9.1.6.4.7.9.7s1-.3 1.3-.4l-.1-1.3h-.5zm3.1-3.1c.5-.1.9.1 1.2.5l-2.2.7c0-.6.5-1.1 1-1.2zm.4 2.9c-.5.1-.8-.1-1.1-.5l3.7-1.2c-.2-1.9-1.6-2.8-3-2.7-1.4.1-2.7 1.2-2.6 3.2.2 1.8 1.4 2.8 3 2.7 1.2-.1 2.2-.8 2.5-2l-1.5-.4c-.1.6-.5.9-1 .9zm-11.2-6.1c-.2 0-.4.2-.5.3-.1-.2-.3-.3-.6-.3-.4 0-.6.3-.6.7 0 .1 0 .1.1.2.2.6 1.3 1.2 1.3 1.2s.9-.8 1.1-1.4v-.2c-.2-.3-.5-.6-.8-.5z"
     id="path3798" />
  <text
     xml:space="preserve"
     style="font-style:normal;font-weight:normal;font-size:40px;line-height:1.25;font-family:sans-serif;letter-spacing:0px;word-spacing:0px;fill:#000000;fill-opacity:1;stroke:none"
     x="359.30234"
     y="227.90698"
     id="text3913"><tspan
       sodipodi:role="line"
       id="tspan3911"
       x="359.30234"
       y="263.29761"></tspan></text>
  <text
     xml:space="preserve"
     style="font-style:normal;font-weight:normal;font-size:29.85722542px;line-height:1.25;font-family:sans-serif;letter-spacing:0px;word-spacing:0px;fill:#a05a2c;fill-opacity:1;stroke:none;stroke-width:0.74643064"
     x="73.448303"
     y="135.35057"
     id="text3921"
     transform="scale(1.0965186,0.91197721)"><tspan
       sodipodi:role="line"
       id="tspan3919"
       x="73.448303"
       y="135.35057"
       style="fill:#a05a2c;stroke-width:0.74643064">wasafi.com</tspan></text>
</svg>
