<svg id="Layer_1" xmlns="http://www.w3.org/2000/svg" xmlns:xlink="http://www.w3.org/1999/xlink" viewBox="0 0 300 300"><style>.st0{fill:#F2F2F2;} .st1{fill:#FFFFFF;stroke:#F2F2F2;stroke-miterlimit:10;} .st2{fill:#799A3D;} .st3{fill:#78787B;} .st4{fill:#FFFFFF;} .st5{fill:#5B632B;} .st6{fill:#5B632C;} .st7{fill:none;stroke:#FFFFFF;stroke-width:8;stroke-linecap:round;stroke-linejoin:round;stroke-miterlimit:10;} .st8{fill:#EF483D;} .st9{fill:#CF2030;} .st10{fill:#18BFD5;} .st11{fill:#008FBE;} .st12{fill:#A17CB7;} .st13{fill:#834D9E;} .st14{fill:#DBAB27;} .st15{fill:#AB8B30;} .st16{fill:#F47E42;} .st17{fill:#E55625;} .st18{fill:#745090;} .st19{fill:#553279;} .st20{clip-path:url(#SVGID_2_);fill:#FFFFFF;} .st21{clip-path:url(#SVGID_2_);fill:#231F20;} .st22{clip-path:url(#SVGID_2_);} .st23{clip-path:url(#SVGID_2_);fill:#D2C8A0;} .st24{clip-path:url(#SVGID_2_);fill:#DCD3AE;} .st25{fill:#231F20;} .st26{fill:#010101;} .st27{clip-path:url(#SVGID_2_);fill:#3B2416;} .st28{clip-path:url(#SVGID_2_);fill:#EF483D;} .st29{clip-path:url(#SVGID_2_);fill:#CF2030;} .st30{clip-path:url(#SVGID_2_);fill:#4D4943;} .st31{clip-path:url(#SVGID_4_);fill:#FFFFFF;} .st32{clip-path:url(#SVGID_4_);fill:#231F20;} .st33{clip-path:url(#SVGID_4_);} .st34{clip-path:url(#SVGID_4_);fill:#D2C8A0;} .st35{clip-path:url(#SVGID_4_);fill:#DCD3AE;} .st36{clip-path:url(#SVGID_4_);fill:#3B2416;} .st37{clip-path:url(#SVGID_4_);fill:#EF483D;} .st38{clip-path:url(#SVGID_4_);fill:#CF2030;} .st39{clip-path:url(#SVGID_4_);fill:#09BBD2;} .st40{clip-path:url(#SVGID_4_);fill:#4D4943;} .st41{clip-path:url(#SVGID_6_);fill:#FFFFFF;} .st42{clip-path:url(#SVGID_6_);fill:#231F20;} .st43{clip-path:url(#SVGID_6_);} .st44{clip-path:url(#SVGID_6_);fill:#D2C8A0;} .st45{clip-path:url(#SVGID_6_);fill:#DCD3AE;} .st46{clip-path:url(#SVGID_6_);fill:#3B2416;} .st47{clip-path:url(#SVGID_6_);fill:#EF483D;} .st48{clip-path:url(#SVGID_6_);fill:#CF2030;} .st49{clip-path:url(#SVGID_6_);fill:#A17CB7;} .st50{clip-path:url(#SVGID_6_);fill:#4D4943;} .st51{clip-path:url(#SVGID_8_);fill:#FFFFFF;} .st52{clip-path:url(#SVGID_8_);fill:#231F20;} .st53{clip-path:url(#SVGID_8_);} .st54{clip-path:url(#SVGID_8_);fill:#D2C8A0;} .st55{clip-path:url(#SVGID_8_);fill:#DCD3AE;} .st56{clip-path:url(#SVGID_8_);fill:#3B2416;} .st57{clip-path:url(#SVGID_8_);fill:#EF483D;} .st58{clip-path:url(#SVGID_8_);fill:#CF2030;} .st59{clip-path:url(#SVGID_8_);fill:#799A3D;} .st60{clip-path:url(#SVGID_8_);fill:#4D4943;} .st61{clip-path:url(#SVGID_10_);fill:#FFFFFF;} .st62{clip-path:url(#SVGID_10_);fill:#231F20;} .st63{clip-path:url(#SVGID_10_);} .st64{clip-path:url(#SVGID_10_);fill:#D2C8A0;} .st65{clip-path:url(#SVGID_10_);fill:#DCD3AE;} .st66{clip-path:url(#SVGID_10_);fill:#3B2416;} .st67{clip-path:url(#SVGID_10_);fill:#EF483D;} .st68{clip-path:url(#SVGID_10_);fill:#CF2030;} .st69{clip-path:url(#SVGID_10_);fill:#D9AC28;} .st70{clip-path:url(#SVGID_10_);fill:#4D4943;} .st71{fill:#F47E46;} .st72{fill:#D9AC28;} .st73{fill:#EF483E;} .st74{fill:#D0202F;} .st75{fill:#09BBD2;} .st76{fill:#0091BA;} .st77{fill:#79797B;} .st78{fill:#755191;} .st79{fill:#55337A;}</style><defs><circle id="SVGID_9_" cx="150" cy="150" r="126.352"/></defs><use xlink:href="#SVGID_9_" overflow="visible" fill="#F2F2F2"/><clipPath id="SVGID_2_"><use xlink:href="#SVGID_9_" overflow="visible"/></clipPath><path id="XMLID_380_" class="st20" d="M90.128 274.743l125.488-.58-.175-37.81c-.064-14.91-12.21-26.944-27.12-26.875l-71.49.33c-14.91.07-26.943 12.214-26.874 27.126l.175 37.81z"/><path id="XMLID_379_" class="st21" d="M136.68 70.934s68.645-33.164 83.755 66.636l9.543 47.894s-70.38 42.493-157.57.73c0 0 8.3-124.323 64.27-115.26z"/><g id="XMLID_375_" class="st22"><path id="XMLID_378_" class="st4" d="M131.536 149.576c.325 0 .657-.067.977-.202 1.29-.546 1.892-2.035 1.345-3.325l-2.48-5.86c-.546-1.29-2.03-1.893-3.326-1.346-1.29.547-1.89 2.036-1.345 3.326l2.48 5.855c.41.97 1.356 1.553 2.35 1.548z"/><path id="XMLID_376_" class="st4" d="M129.04 140.442c.29-.002.566.168.686.453l2.48 5.854c.16.373-.018.81-.395.97-.09.04-.19.06-.28.06-.29 0-.567-.17-.687-.456l-2.48-5.854c-.16-.377.018-.813.396-.972.09-.04.19-.06.283-.06"/></g><g id="XMLID_371_" class="st22"><path id="XMLID_374_" class="st4" d="M127.953 152.073c.557-.003 1.116-.188 1.583-.565 1.09-.88 1.257-2.48.375-3.57l-4-4.94c-.874-1.09-2.47-1.258-3.563-.377-1.09.886-1.257 2.48-.375 3.57l4 4.946c.504.622 1.24.944 1.985.94z"/><path id="XMLID_372_" class="st4" d="M123.935 143.85c.217 0 .434.094.583.277l3.998 4.942c.258.314.21.78-.11 1.04-.136.11-.3.163-.463.164-.217 0-.432-.093-.58-.276l-4-4.94c-.257-.32-.21-.788.11-1.046.136-.11.3-.164.462-.165"/></g><path id="XMLID_369_" class="st20" d="M132.096 144.36c4.43-.02 8.036 3.553 8.056 7.982.02 4.43-3.553 8.036-7.982 8.056-4.43.02-8.036-3.553-8.056-7.982-.02-4.43 3.553-8.036 7.982-8.056"/><path id="XMLID_367_" class="st20" d="M132.11 147.49c2.7-.013 4.9 2.166 4.912 4.866.013 2.7-2.166 4.9-4.866 4.912-2.7.013-4.9-2.166-4.912-4.866-.013-2.7 2.166-4.9 4.866-4.912"/><g id="XMLID_363_" class="st22"><path id="XMLID_366_" class="st4" d="M171.277 149.392c.993-.004 1.933-.595 2.334-1.57l2.43-5.876c.535-1.295-.082-2.78-1.377-3.313-1.296-.534-2.78.082-3.313 1.377l-2.425 5.876c-.535 1.295.082 2.78 1.377 3.313.32.13.65.19.976.19z"/><path id="XMLID_364_" class="st4" d="M173.69 140.235c.094 0 .19.018.284.056.38.16.56.596.403.97l-2.425 5.88c-.117.287-.392.46-.682.46-.096 0-.193-.02-.286-.055-.38-.155-.56-.59-.403-.97l2.43-5.876c.117-.286.393-.458.683-.46"/></g><g id="XMLID_359_" class="st22"><path id="XMLID_362_" class="st4" d="M174.882 151.856c.743-.004 1.48-.333 1.977-.96l3.95-4.98c.87-1.097.69-2.693-.41-3.564-1.1-.868-2.695-.687-3.566.41l-3.953 4.98c-.87 1.097-.687 2.692.41 3.563.47.373 1.03.553 1.588.55z"/><path id="XMLID_360_" class="st4" d="M178.82 143.597c.165 0 .33.052.466.16.32.256.374.722.12 1.043l-3.952 4.98c-.147.184-.36.28-.578.28-.164.002-.328-.05-.465-.16-.32-.255-.37-.722-.12-1.043l3.956-4.98c.147-.183.362-.28.58-.28"/></g><path id="XMLID_357_" class="st20" d="M170.667 144.18c4.43-.02 8.037 3.554 8.057 7.983.02 4.43-3.553 8.036-7.982 8.057-4.43.02-8.036-3.553-8.057-7.982-.02-4.43 3.553-8.036 7.982-8.057"/><path id="XMLID_355_" class="st20" d="M170.682 147.31c2.7-.01 4.9 2.168 4.912 4.868s-2.166 4.9-4.867 4.912c-2.7.012-4.9-2.167-4.912-4.867-.012-2.7 2.167-4.9 4.867-4.912"/><path id="XMLID_353_" class="st20" d="M173.733 150.066c.508-.002.92.407.923.914.002.508-.407.92-.914.923-.508.003-.92-.407-.923-.914-.008-.51.402-.926.91-.928"/><path id="XMLID_351_" class="st20" d="M135.01 150.245c.506-.002.92.407.922.915.002.507-.407.92-.914.923-.508.002-.92-.407-.923-.915-.003-.507.407-.92.914-.923"/><path id="XMLID_350_" class="st23" d="M151.326 193.346c7.698-.035 15.035-1.796 21.765-4.937 1.748-.818 3.43-1.757 5.09-2.75l.015 28.27c-1.187 13.79-12.714 24.65-26.826 24.714-14.113.066-25.74-10.685-27.055-24.465l-.246-28.443c1.464.875 2.955 1.7 4.487 2.434 7.02 3.364 14.71 5.21 22.774 5.17z"/><path id="XMLID_349_" class="st24" d="M92.868 149.337c-.557-3.722-.865-7.543-.883-11.445-.175-37.887 26.135-68.722 58.766-68.873 32.63-.156 59.23 30.434 59.4 68.32.02 3.28-.18 6.496-.55 9.65-.076.64-.15 1.283-.24 1.918.086.03.164.072.248.104 5.963 2.32 9.165 9.375 7.187 16.336-1.15 4.05-3.81 7.205-7.07 8.915-2.656 1.394-5.708 1.83-8.676.988-.158-.043-.304-.106-.458-.157-5.56 9.886-13.272 17.976-22.354 23.438-1.656.997-3.342 1.936-5.085 2.75-6.73 3.14-14.066 4.904-21.763 4.94-8.063.037-15.755-1.81-22.774-5.17-1.532-.737-3.024-1.56-4.488-2.437-9.02-5.396-16.703-13.394-22.29-23.16-.244.092-.483.19-.736.264-1.444.424-2.91.53-4.34.385-5.118-.515-9.815-4.416-11.498-10.14-2.104-7.162 1.296-14.487 7.61-16.622z"/><g id="XMLID_346_" class="st22"><path id="XMLID_348_" class="st25" d="M131.522 147.038l-2.48-5.854"/><path id="XMLID_347_" class="st26" d="M131.525 147.78c.096 0 .193-.018.286-.058.38-.16.56-.595.4-.973l-2.48-5.86c-.16-.38-.597-.553-.97-.393-.38.16-.555.595-.396.973l2.48 5.855c.12.284.397.454.686.453z"/></g><g id="XMLID_343_" class="st22"><path id="XMLID_345_" class="st25" d="M127.94 149.536l-4-4.943"/><path id="XMLID_344_" class="st26" d="M127.943 150.278c.164 0 .327-.055.463-.165.32-.258.368-.725.11-1.044l-3.998-4.947c-.26-.32-.73-.367-1.045-.11-.32.257-.367.724-.11 1.043l4 4.94c.148.184.363.278.58.277z"/></g><circle id="XMLID_342_" class="st20" cx="132.133" cy="152.379" r="8.02"/><circle id="XMLID_341_" class="st27" cx="132.133" cy="152.379" r="4.889"/><g id="XMLID_338_" class="st22"><path id="XMLID_340_" class="st25" d="M171.266 146.854l2.425-5.876"/><path id="XMLID_339_" class="st26" d="M171.27 147.597c.29 0 .565-.174.682-.46l2.425-5.876c.156-.374-.024-.81-.403-.97-.377-.15-.812.03-.968.408l-2.425 5.877c-.15.38.03.815.408.97.093.04.19.057.286.057z"/></g><g id="XMLID_335_" class="st22"><path id="XMLID_337_" class="st25" d="M174.872 149.318l3.953-4.98"/><path id="XMLID_336_" class="st26" d="M174.876 150.06c.217 0 .43-.096.578-.28l3.952-4.98c.254-.32.2-.787-.12-1.042-.32-.253-.787-.202-1.044.12l-3.952 4.98c-.254.32-.2.787.12 1.042.138.11.302.162.466.16z"/></g><circle id="XMLID_334_" class="st20" cx="170.705" cy="152.2" r="8.02"/><circle id="XMLID_333_" class="st27" cx="170.705" cy="152.2" r="4.889"/><circle id="XMLID_332_" class="st20" cx="172.737" cy="154.985" r=".919"/><circle id="XMLID_331_" class="st20" cx="134.013" cy="155.164" r=".919"/><path id="XMLID_330_" class="st28" d="M157.756 171.902c2.18-.36 3.64-1.56 3.66-1.576.247-.212.62-.182.83.066.212.248.184.62-.064.83-.085.075-1.808 1.526-4.42 1.892.026-.196.06-.39.06-.593-.002-.21-.037-.41-.066-.614z"/><path id="XMLID_329_" class="st28" d="M139.968 170.495c.21-.25.58-.282.83-.073.02.014 1.443 1.158 3.56 1.522-.03.21-.062.42-.06.64 0 .2.05.383.08.574-2.558-.365-4.253-1.76-4.338-1.833-.25-.21-.28-.58-.072-.83z"/><path id="XMLID_328_" class="st28" d="M146.665 172.573l8.904-.04 2.25-.012c0 .208-.036.4-.06.598-.056.415-.145.82-.3 1.192-.81 2.786-3.346 4.842-6.39 4.856-3.306.016-6.048-2.358-6.626-5.495-.04-.163-.045-.34-.07-.51-.03-.19-.08-.374-.08-.573l2.367-.01z"/><path id="XMLID_327_" class="st29" d="M144.36 171.944c.3-2.185 2.154-3.878 4.424-3.89.826-.003 1.59.232 2.257.616.67-.39 1.43-.632 2.256-.636 2.278-.01 4.15 1.676 4.464 3.868.03.204.063.407.064.62l-2.25.01-8.905.04-2.37.012c0-.22.03-.43.06-.64z"/><path id="XMLID_323_" d="M115.456 150.04c.04 8.722 7.17 15.786 15.892 15.746 8.6-.04 15.572-6.975 15.728-15.528l8.347-.04c.235 8.553 7.272 15.422 15.872 15.383 8.722-.04 15.785-7.17 15.745-15.89-.04-8.72-7.17-15.782-15.89-15.742-8.3.04-15.085 6.5-15.69 14.64l-8.437.04c-.68-8.136-7.523-14.533-15.822-14.495-8.72.04-15.78 7.17-15.74 15.89zm43.177-.2c-.032-6.94 5.59-12.613 12.53-12.645 6.942-.033 12.614 5.588 12.647 12.53.032 6.94-5.59 12.613-12.53 12.645-6.94.032-12.615-5.588-12.647-12.53zm-39.946.186c-.032-6.94 5.588-12.614 12.53-12.647 6.94-.037 12.613 5.584 12.645 12.53.032 6.94-5.588 12.61-12.53 12.64-6.94.033-12.613-5.587-12.645-12.53z" clip-path="url(#SVGID_2_)" fill="#D9AC28"/><path id="XMLID_322_" class="st21" d="M136.68 70.934c-31.718 4.363-54.866 37.76-43.812 78.403 0 0 30.383-6.656 52.08-66.235l-8.27-12.168z"/><path id="XMLID_321_" class="st21" d="M209.358 148.912s-53.366-28.946-65.37-64.992c0 0 5.193-29.023 57.47 13.642 0 0 21.725 40.235 7.9 51.35z"/><path id="XMLID_320_" class="st21" d="M149.91 84.78l-21.936-8.48 7.67-5.066s41.937-17.948 63.14 23.677l-5.22 23.406-43.375-37.38"/><path id="XMLID_319_" class="st21" d="M141.854 70.318c-.885.596-55.45-24.896-66.166 89.376l15.888-19.604 42.052-57.01 8.226-12.762z"/><g id="XMLID_314_" class="st22"><path id="XMLID_318_" class="st4" d="M83.052 274.776l46.84-.217-.2-43.007c-.038-8.438-6.91-15.247-15.35-15.208l-19.146.087c-6.856.032-12.388 5.616-12.357 12.472l.21 45.866z"/><path id="XMLID_315_" class="st4" d="M82.034 237.496c-.056-12.044 9.697-21.888 21.74-21.943 14.718-.07 26.745 11.848 26.813 26.564l.154 33.284-48.53.23-.172-38.13zm46.86 4.63c-.062-13.784-11.328-24.946-25.11-24.882-11.112.05-20.11 9.133-20.06 20.244l.17 36.438 45.148-.21-.147-31.59z"/></g><g id="XMLID_309_" class="st22"><path id="XMLID_313_" class="st4" d="M172.963 274.36l46.84-.217-.2-43.002c-.038-8.433-6.91-15.243-15.35-15.204l-19.145.09c-6.856.03-12.39 5.615-12.357 12.47l.217 45.868z"/><path id="XMLID_310_" class="st4" d="M171.945 237.08c-.056-12.045 9.698-21.888 21.742-21.944 14.716-.068 26.744 11.848 26.812 26.565l.15 33.288-48.53.225-.18-38.13zm46.863 4.63c-.064-13.785-11.33-24.946-25.113-24.882-11.112.05-20.11 9.133-20.06 20.244l.17 36.438 45.15-.21-.147-31.59z"/></g><path id="XMLID_308_" class="st30" d="M121.602 209.355l-11.354 2.183c-.722.14-1.264.75-1.295 1.485-.235 5.583 1.095 28.18 36.984 35.062.984.19 1.898-.58 1.893-1.583l-.058-12.605c-.004-.802-.59-1.474-1.386-1.577-4.685-.602-19.865-3.91-22.9-21.626-.154-.898-.99-1.51-1.884-1.34z"/><path id="XMLID_307_" class="st30" d="M181.13 209.08l11.373 2.078c.723.132 1.27.738 1.31 1.473.285 5.58-.835 28.19-36.66 35.408-.98.197-1.902-.565-1.907-1.566l-.058-12.606c-.004-.8.577-1.48 1.37-1.59 4.68-.644 19.83-4.094 22.7-21.837.145-.9.975-1.52 1.87-1.357z"/><path id="XMLID_306_" class="st30" d="M149.718 254.003c-3.094 2.045-1.44 3.684.576.57 2.046 3.095 3.684 1.44.572-.576 3.094-2.045 1.44-3.684-.577-.57-2.05-3.095-3.69-1.44-.576.576z"/><path id="XMLID_305_" class="st30" d="M149.77 265.31c-3.094 2.044-1.44 3.683.577.57 2.045 3.094 3.684 1.44.57-.577 3.095-2.045 1.44-3.684-.576-.57-2.04-3.095-3.68-1.44-.57.576z"/><path class="st22 st4" d="M161.733 65.646c21.228 0 49.625 11.97 58.702 71.924l9.543 47.894s-19.963 12.05-51.794 17.01l.004 7.05 1.545-.006c.292-.288.686-.465 1.112-.464.093 0 .188.008.284.025l2.302.42 4.88-.026h.127c6.74 0 12.9 2.477 17.633 6.564 7.583.867 13.492 7.28 13.528 15.1l.02 3.885c.56 2.133.866 4.37.876 6.674l.153 33.283-48.53.225-.005-.85-41.38.193.003.846-48.53.224-.18-38.13c-.01-2.08.28-4.093.818-6.004l-.01-2.58c-.033-6.857 5.5-12.44 12.355-12.473l2.583-.01c.673-.196 1.358-.36 2.055-.49 4.628-3.8 10.54-6.096 16.995-6.126l2.47-.013 2.304-.442c.1-.02.2-.03.3-.03.42 0 .81.173 1.1.456l1.27-.005-.063-7.316c-16.22-2.536-33.645-7.57-51.804-16.268 0 0 .746-11.143 3.29-26.51l-.01.01C83.153 80 111.94 68.28 128.986 68.28c4.587 0 8.327.85 10.57 1.454 4.15-1.56 12.4-4.095 22.17-4.095m0-5c-9.504 0-17.68 2.222-22.43 3.87-3.505-.827-6.893-1.23-10.31-1.23h-.005c-9.15 0-22.5 3.07-34.15 17.706-12.623 15.857-20.74 42.15-24.122 78.158-2.517 15.28-3.268 26.246-3.3 26.708-.135 2.04.985 3.96 2.83 4.843 13.562 6.496 27.528 11.358 41.657 14.51-5.157.83-10.07 2.91-14.253 6.076l-.56.14-1.92.01c-4.65.02-9.015 1.854-12.29 5.158-3.273 3.303-5.064 7.685-5.043 12.336l.007 1.917c-.55 2.185-.824 4.426-.814 6.67l.177 38.13c.007 1.326.54 2.596 1.48 3.53.938.927 2.203 1.447 3.52 1.447h.024l48.53-.226c1.03-.003 1.986-.32 2.78-.857l35.814-.167c.792.526 1.742.832 2.763.832h.025l48.533-.227c2.76-.01 4.99-2.26 4.976-5.022l-.155-33.282c-.013-2.46-.31-4.904-.88-7.28l-.017-3.28c-.046-9.733-6.995-17.986-16.408-19.804-4.527-3.556-9.92-5.816-15.59-6.562 24.395-5.735 39.23-14.57 39.954-15.005 1.803-1.09 2.73-3.193 2.32-5.26l-9.52-47.78c-4.24-27.902-13.074-48.487-26.25-61.18-10.25-9.873-22.827-14.88-37.38-14.88z"/></svg>