<svg xmlns="http://www.w3.org/2000/svg" viewBox="0 0 675 110"><path fill="#FFF" d="M169.083 25.31l.002.002-.002-.002zm13.732 37.865c.018-.288.022-.585.012-.844-.002-.05-.006-.113-.012-.172-.025-.494-.1-1.01-.214-1.53-.032-.146-.073-.294-.13-.508-.05-.185-.1-.37-.164-.56-.017-.06-.037-.12-.062-.185-.012-.037-.03-.087-.05-.13-.357-.95-.864-1.898-1.51-2.822-.748-1.222-2.042-2.544-3.85-3.93l-.41-.308c-.406-.3-.85-.614-1.338-.942-.23-.154-.47-.312-.722-.474-1.136-.733-2.432-1.495-3.852-2.265-.778-.42-1.566-.833-2.384-1.242 2.19-3.112 3.368-6.814 3.368-10.694 0-.707-.04-1.42-.124-2.127l.082-.06c.356-.266.704-.576 1.068-.948.29-.296.552-.605.784-.914.243-.324.445-.626.61-.92.45-.784.782-1.63.99-2.52.477-2.074.234-4.284-.687-6.22-.275-.57-.606-1.118-.987-1.627-1.796-2.408-4.643-3.845-7.615-3.845-2 0-3.902.63-5.498 1.823l-.173.132c-3.395-1.393-7.127-1.756-10.834-.976-.587.123-1.097.253-1.566.395-.543.167-1.078.36-1.605.573l-.16-.12c-.458-.342-.96-.646-1.49-.903-.046-.024-.1-.05-.136-.07-.407-.188-.846-.348-1.342-.49-.226-.064-.45-.122-.68-.167-.61-.123-1.234-.188-1.858-.188-2.97 0-5.816 1.433-7.614 3.84-.117.156-.222.316-.36.532-2.05 3.16-2.057 7.204-.02 10.305.42.64.9 1.21 1.43 1.698.23.213.476.42.734.61l.066.05c-.094.76-.14 1.466-.14 2.137v.148c-.907-.43-1.815-.753-2.712-.966l-.098-.026c-.084-.022-.166-.034-.17-.034-.664-.142-1.325-.222-1.964-.243l-.278-.004c-.262 0-.52.012-.76.03-.266.02-.53.05-.728.08-.353.048-.696.127-1.084.223-2.12.516-3.952 1.622-5.298 3.195-1.007 1.174-1.685 2.53-2.02 4.027-.098.435-.16.886-.193 1.41-.02.207-.032.415-.037.623 0 .008 0 .015-.002.025 0 0-.008.115-.006.31 0 .15.006.374.027.657.016.222.043.484.085.77.034.215.077.448.13.69.18.83.45 1.623.8 2.353.11.226.23.45.36.674.23.397.506.797.847 1.226l.14.17c.372.44.786.847 1.227 1.208.233.212.488.426.758.636.96.747 2.075 1.404 3.316 1.956l.044.024c2.724 1.544 5.47 2.604 7.496 3.267-.186.56-.35 1.133-.486 1.707-.26 1.102-.43 2.238-.5 3.378-.548-.062-1.063-.08-1.577-.05-1.08.057-2.116.32-3.078.775-1.115.528-2.112 1.26-2.964 2.17-.81.865-1.477 1.883-1.983 3.022-1.643 3.692-1.448 8.368.516 12.51.964 2.038 2.327 3.87 3.94 5.31l.217.18c.38.327.778.635 1.223.94 3.535 2.445 7.74 2.96 11.126 1.358.204-.1.395-.21.585-.326l.12-.07c1.43-.83 2.606-1.976 3.495-3.4.03-.04.056-.08.082-.125l.053-.086.055-.09 1.27-2.087c3.074 1.1 6.458 1.4 9.71.852.687-.116 1.377-.272 2.053-.462.32-.09.64-.19.957-.297l1.21 1.986c.012.017.022.037.033.053l.08.13c.046.075.095.15.15.217l.095.132c.877 1.334 1.998 2.4 3.334 3.176l.116.07c.19.117.383.228.583.322 1.32.626 2.74.943 4.233.943 3.262 0 6.628-1.56 9.233-4.282.603-.63 1.165-1.322 1.67-2.058.516-.75.978-1.553 1.37-2.383 1.124-2.37 1.685-4.94 1.622-7.42-.01-.348-.03-.694-.062-1.034-.197-2.02-.823-3.904-1.806-5.478.913-1.267 1.518-2.73 1.765-4.29.068-.427.108-.812.12-1.118l.003.003z"/><path fill="#5C642C" d="M127.168 43.7c-1.635 1.024-2.202 3.064-1.267 4.553.937 1.488 3.02 1.865 4.656.836 1.634-1.026 2.2-3.066 1.266-4.555-.935-1.488-3.018-1.864-4.653-.837h-.002zm10.073-19.087c-1.333 1.785-1 4.285.742 5.588l.016.013c1.074-2.534 2.77-4.734 4.894-6.416l-.082-.062c-1.74-1.3-4.236-.91-5.57.877zm30.64 5.618l.042-.03c1.74-1.302 2.075-3.802.74-5.588s-3.827-2.177-5.568-.877l-.1.074c2.123 1.684 3.817 3.887 4.887 6.42zm-21.26 3.454c0-.884-.588-1.6-1.313-1.6-.724 0-1.31.715-1.31 1.602 0 .886.586 1.605 1.31 1.605.725 0 1.313-.718 1.313-1.604v-.002zm13.44-1.6c-.726 0-1.314.715-1.314 1.602 0 .886.586 1.605 1.31 1.605.725 0 1.313-.718 1.313-1.604 0-.884-.59-1.602-1.313-1.602h.002zm-5.2 6.515c-.103.74-.77 1.18-1.214 1.39-.115.063-.237.112-.368.15l-.03.01v-.003c-.032.008-.063.02-.1.024-.128.03-.264.044-.405.044-.18 0-.354-.024-.516-.067l.003.002s-.075-.022-.186-.065l-.06-.025c-.427-.175-1.267-.627-1.363-1.48-.012-.06-.02-.12-.02-.185 0-.745.96-1.35 2.143-1.35 1.09 0 1.99.518 2.124 1.185v-.002.003c.01.058.018.112.018.17 0 .068-.01.135-.025.2zm-2.115-3.972c-4.153.072-7.316 3.695-7.316 6.047 0 .037.007.074.008.11-.003.06-.01.116-.01.174 0 2.185 1.626 3.984 3.733 4.265.774 1.155 2.088 1.915 3.582 1.915 1.494 0 2.81-.76 3.58-1.915 2.11-.28 3.734-2.08 3.734-4.265 0-.058-.005-.113-.007-.173 0-.037.01-.074.007-.11.003-2.352-3.16-5.975-7.31-6.047l-.002-.002z"/><path fill="#799A3D" d="M154.87 38.226c-.134-.667-1.034-1.18-2.124-1.18-1.186 0-2.145.604-2.145 1.352 0 .062.01.123.023.185.1.852.94 1.303 1.365 1.478l.06.026c.112.043.187.064.187.064l-.004-.002c.16.043.334.068.516.068.14 0 .275-.013.405-.042.035-.007.067-.018.1-.025l.03-.01c.13-.037.252-.086.365-.148.444-.212 1.11-.652 1.216-1.393.017-.067.026-.134.026-.203 0-.056-.006-.11-.016-.167v-.004z"/><path fill="#5C642C" d="M130.876 70.44c-3.167 1.503-4.186 5.987-2.278 10.016 1.91 4.03 6.026 6.08 9.195 4.58 3.168-1.5 4.188-5.985 2.28-10.016-1.91-4.03-6.027-6.08-9.194-4.58h-.004zm43.61 0c-3.168-1.5-7.285.55-9.194 4.58-1.91 4.03-.89 8.515 2.28 10.015 3.167 1.502 7.283-.548 9.193-4.58 1.91-4.028.89-8.512-2.277-10.014zM158.25 58.167c-1.67.253-3.618.4-5.705.4s-4.034-.147-5.705-.4c-1.133-.173-2.297.205-2.936.978-2.198 2.658-3.2 6.342-2.14 10.237.985 3.627 3.84 6.554 7.45 7.595 7.614 2.198 14.54-3.45 14.54-10.72 0-2.703-.967-5.178-2.566-7.11-.64-.774-1.803-1.153-2.94-.98h.002z"/><path fill="#799A3D" d="M176.764 80.456c-1.91 4.03-6.026 6.08-9.193 4.58s-4.187-5.985-2.278-10.016c1.91-4.03 6.026-6.08 9.195-4.58 3.167 1.503 4.186 5.987 2.278 10.016zm-13.77-56.645l.1-.074c1.74-1.3 4.235-.908 5.57.877 1.333 1.785 1 4.285-.742 5.588l-.04.03c-1.07-2.532-2.764-4.736-4.887-6.422v.003zm-10.45 53.645c-6.19 0-11.207-5.013-11.207-11.197 0-2.705.966-5.18 2.566-7.113.64-.774 1.803-1.153 2.936-.98 1.67.254 3.618.402 5.704.402s4.036-.148 5.706-.4c1.136-.174 2.296.204 2.938.977 1.598 1.933 2.564 4.408 2.564 7.112 0 6.187-5.017 11.2-11.208 11.2zm-14.752 7.58c-3.168 1.502-7.284-.548-9.194-4.58-1.91-4.028-.89-8.512 2.28-10.014 3.168-1.5 7.285.55 9.194 4.58 1.91 4.03.89 8.515-2.278 10.015h-.002zm-.55-60.422c1.332-1.785 3.827-2.177 5.568-.877l.082.062c-2.124 1.682-3.82 3.883-4.894 6.415l-.016-.012c-1.74-1.302-2.075-3.802-.74-5.588zm8.065 7.47c.725 0 1.313.717 1.313 1.603s-.59 1.605-1.314 1.605c-.724 0-1.312-.718-1.312-1.604 0-.884.588-1.602 1.312-1.602zm7.438 2.545c4.15.072 7.312 3.695 7.31 6.047.002.037-.005.074-.008.11.003.06.01.116.01.174 0 2.185-1.625 3.984-3.73 4.265-.774 1.155-2.09 1.915-3.58 1.915-1.495 0-2.812-.76-3.585-1.915-2.107-.28-3.732-2.08-3.732-4.265 0-.058.007-.115.01-.173 0-.037-.01-.074-.01-.11 0-2.352 3.162-5.975 7.315-6.047v-.002zm7.31-2.544c.726 0 1.314.716 1.314 1.602 0 .886-.59 1.605-1.314 1.605-.722 0-1.31-.718-1.31-1.604 0-.884.588-1.602 1.31-1.602zm-29.5 17.004c-1.637 1.03-3.72.655-4.656-.835-.935-1.49-.368-3.528 1.267-4.556 1.635-1.025 3.717-.65 4.653.84.935 1.487.368 3.526-1.267 4.552v-.002zm-6.34-3.918c-.564-.16-.91-.68-.774-1.152.137-.474.705-.73 1.27-.566.565.16.91.68.775 1.154-.136.474-.704.728-1.27.564zm1.413-3.912c.44-.23 1.015.002 1.29.52s.143 1.127-.293 1.36c-.437.23-1.013-.003-1.288-.523-.274-.52-.143-1.124.292-1.356l-.002-.002zm3.396-1.015c.487.074.81.605.72 1.185-.09.58-.557.992-1.045.917-.488-.075-.812-.606-.723-1.186.09-.58.558-.99 1.046-.917zm51.46 22.787c.054-.84-.058-1.762-.405-2.763-.013-.032-.02-.066-.03-.098l-.026-.066c-.284-.76-.7-1.562-1.297-2.404-.88-1.482-3.815-4.67-13.657-9.33l-.597-.357c2.897-2.94 4.688-6.98 4.688-11.44 0-1.08-.108-2.137-.308-3.158l1.204-.9c3.08-2.3 3.668-6.724 1.31-9.88-2.36-3.156-6.768-3.85-9.848-1.547l-1.282.957c-2.194-1.112-4.674-1.742-7.3-1.742-2.618 0-5.09.627-7.282 1.732l-1.268-.947c-3.08-2.302-7.49-1.61-9.847 1.547-2.36 3.156-1.773 7.582 1.308 9.88l1.175.878c-.203 1.03-.312 2.093-.312 3.18 0 1.795.295 3.518.828 5.132-1.74-1.62-2.98-2.35-3.763-2.68-.964-.49-1.856-.815-2.688-1.01L131.02 38c-.037-.008-.072-.01-.11-.017-1.086-.234-2.064-.246-2.926-.108-3.13.427-5.754 2.58-6.437 5.638-.082.367-.124.734-.145 1.1-.022.2-.03.403-.032.607l-.002-.01s-.2 3.692 2.764 6.113l-.003-.008c.863.8 2.04 1.608 3.635 2.31 4.042 2.32 8.224 3.506 9.64 3.868-1.172 2.367-1.834 5.038-1.834 7.866 0 .568.03 1.126.082 1.68-2.096-.712-4.098-1.03-6.034-.114-4.618 2.188-6.105 8.723-3.322 14.596s8.783 8.86 13.4 6.673c1.39-.657 2.49-1.715 3.28-3.024l.004.004.08-.13.018-.028 2.322-3.82c2.256 1.098 4.78 1.713 7.45 1.713 2.566 0 5-.573 7.19-1.593l2.25 3.7.017.028.08.13.002-.005c.79 1.31 1.89 2.368 3.28 3.025 4.617 2.19 10.616-.8 13.4-6.672 2.288-4.828 1.684-10.1-1.166-13.04 1.565-1.38 2.5-3.36 2.58-5.446v-.002z"/><path fill="#5C642C" d="M124.712 43.452c-.564-.163-1.132.09-1.27.565-.135.474.21.99.775 1.153.564.164 1.132-.09 1.27-.563.135-.476-.21-.992-.775-1.155zm3.987-1.11c.487.075.955-.332 1.045-.912.09-.58-.234-1.112-.722-1.188-.49-.074-.958.333-1.047.913-.09.58.234 1.112.722 1.188zm-2.075.793c.436-.23.568-.84.292-1.358-.274-.52-.852-.75-1.288-.52-.435.23-.566.838-.292 1.357.275.52.852.753 1.288.522z"/><path fill="#A27BB7" d="M60.104 69.184c.35-.412.673-.845.998-1.28.153-.204.314-.4.462-.61.356-.503.683-1.028 1.005-1.558.043-.075.09-.147.134-.22 2.317-3.91 3.666-8.448 3.666-13.31H15.852c-.945-3.11-2.985-5.77-5.704-7.49.025.18.054.36.054.546 0 .866-.332 1.653-.862 2.265 1.708 1.276 3.026 3.032 3.736 5.063.03.13.128.528.223.962.005.113.024.222.032.335.037.608.094 1.21.173 1.803.045.352.1.7.16 1.047.078.44.16.88.258 1.31.113.51.247 1.007.39 1.504.077.265.15.525.234.78.217.678.465 1.335.732 1.983.03.076.058.15.09.226 4.018 9.457 13.41 16.113 24.412 16.113 7.302 0 13.9-2.96 18.695-7.715l.16-.15c.513-.516 1.003-1.05 1.47-1.604h-.003z"/><path fill="#824D9E" d="M66.37 52.238c-.124-7.06-3.064-13.435-7.756-18.09-.05-.052-.1-.106-.154-.157-.514-.504-1.054-.99-1.612-1.455-.414-.347-.853-.666-1.29-.99-.206-.15-.406-.314-.614-.457-.51-.354-1.04-.678-1.57-.997l-.226-.133c-3.785-2.207-8.158-3.516-12.84-3.616-.185.003-.373.006-.54.016-1.142.072-1.916.26-2.25.362l-.222.055.025.012c-2.133.49-3.733 2.363-3.733 4.63 0 1.79.992 3.348 2.46 4.168-1.468.816-2.46 2.373-2.46 4.163 0 1.955 1.185 3.635 2.882 4.373-1.696.736-2.884 2.415-2.884 4.37 0 1.53.734 2.876 1.86 3.75H66.37v-.002zm-56.023-7.552c-.163-1.017-.748-1.928-1.607-2.5-.866-.58-1.925-.764-2.97-.52-1.305.304-2.363 1.326-2.7 2.604-.302 1.15-.066 2.335.648 3.252.712.916 1.79 1.44 2.954 1.44 1.078 0 2.106-.477 2.822-1.303.596-.692.91-1.52.91-2.4 0-.21-.033-.414-.058-.577v.003z"/><ellipse fill="#824D9E" cx="26.94" cy="76.409" rx="11.011" ry="10.921"/><ellipse fill="#FFF" cx="26.94" cy="76.409" rx="4.259" ry="4.225"/><ellipse fill="#824D9E" cx="51.703" cy="76.409" rx="11.011" ry="10.921"/><ellipse fill="#FFF" cx="51.703" cy="76.409" rx="4.259" ry="4.225"/><path fill="#FFF" d="M40.307 26.342c4.683.1 9.055 1.41 12.84 3.616.075.043.146.088.22.133.535.32 1.062.644 1.57.997.21.143.41.304.616.456.44.322.875.643 1.29.992.56.462 1.096.95 1.615 1.453.054.05.103.108.154.16 4.687 4.648 7.622 11.01 7.753 18.057h.003v.03c-.006 4.85-1.356 9.376-3.666 13.277-.044.076-.09.146-.136.22-.32.53-.648 1.055-1.004 1.557-.146.21-.308.406-.46.612-.328.433-.65.866-1 1.278-.026.03-.057.058-.082.088 1.67 1.914 2.69 4.407 2.69 7.137 0 6.032-4.93 10.92-11.01 10.92-5.328 0-9.77-3.75-10.79-8.732-.38.016-.75.056-1.134.056-.69 0-1.373-.026-2.047-.08-1.014 4.998-5.46 8.757-10.792 8.757-6.082 0-11.01-4.89-11.01-10.92 0-2.986 1.21-5.69 3.17-7.663-1.51-1.88-2.776-3.96-3.73-6.208l-.092-.223c-.268-.648-.514-1.305-.732-1.983-.084-.255-.156-.515-.233-.78-.142-.493-.275-.99-.388-1.5-.1-.432-.18-.87-.26-1.31-.058-.346-.114-.694-.16-1.046-.08-.594-.134-1.195-.173-1.8-.007-.114-.026-.222-.032-.335-.094-.435-.19-.833-.222-.963-.69-1.968-1.953-3.666-3.583-4.93-.715.828-1.745 1.3-2.82 1.3-1.166 0-2.243-.522-2.956-1.438-.716-.917-.952-2.102-.65-3.255.337-1.277 1.397-2.298 2.703-2.603.3-.07.602-.106.9-.106.737 0 1.45.213 2.066.625.86.575 1.444 1.486 1.607 2.502.008.053.01.126.018.185 2.608 1.722 4.567 4.31 5.485 7.336H35.41c-1.105-.875-1.83-2.204-1.83-3.717 0-1.955 1.187-3.633 2.885-4.372-1.698-.738-2.884-2.418-2.884-4.373 0-1.788.993-3.345 2.462-4.163-1.47-.82-2.46-2.376-2.46-4.165 0-2.265 1.598-4.14 3.733-4.63l-.025-.01.223-.055c.334-.1 1.11-.29 2.25-.36.167-.01.355-.013.54-.018m26.062 25.863h.01M40.3 23.875h-.063l-.105.003c-.18.003-.364.008-.528.02-1.334.083-2.26.3-2.737.438-.133.03-.218.054-.218.054-.093.025-.182.053-.27.088-3.138.886-5.297 3.69-5.297 6.943 0 1.516.48 2.964 1.33 4.167-.85 1.2-1.33 2.65-1.33 4.164 0 1.614.54 3.14 1.48 4.376-.94 1.234-1.48 2.762-1.48 4.373 0 .42.038.836.11 1.242H17.58c-1.09-2.484-2.808-4.665-4.984-6.316-.42-1.33-1.29-2.498-2.47-3.284C9.1 39.46 7.905 39.1 6.665 39.1c-.49 0-.987.056-1.473.17-2.19.508-3.973 2.23-4.542 4.384-.498 1.902-.1 3.867 1.088 5.392 1.19 1.526 2.984 2.4 4.928 2.4.904 0 1.79-.198 2.595-.57.613.73 1.094 1.55 1.415 2.434.035.146.09.377.147.633l.01.088c.05.735.113 1.382.196 1.997.047.374.11.753.173 1.132.09.495.177.974.286 1.446.122.546.267 1.092.427 1.637l.044.16c.068.235.138.47.213.704.224.697.486 1.406.796 2.16l.03.075.073.175c.76 1.793 1.717 3.52 2.852 5.15-1.62 2.252-2.492 4.94-2.492 7.752 0 7.386 6.056 13.393 13.503 13.393 5.44 0 10.27-3.255 12.38-8.045 2.11 4.79 6.946 8.045 12.383 8.045 7.445 0 13.503-6.007 13.503-13.394 0-2.517-.722-4.973-2.058-7.09l.107-.14c.12-.157.24-.314.354-.477.417-.59.788-1.188 1.093-1.693l.046-.075.104-.17c2.592-4.376 3.975-9.353 4.006-14.393.003-.054.005-.11.005-.163 0-.08-.005-.158-.013-.233-.184-7.385-3.19-14.33-8.48-19.574l-.16-.167c-.584-.57-1.177-1.105-1.77-1.595-.435-.363-.9-.707-1.366-1.05l-.24-.18c-.157-.12-.316-.24-.48-.352-.603-.417-1.203-.782-1.708-1.085l-.072-.042-.18-.107c-4.254-2.478-9.11-3.845-14.043-3.952h-.057l.012-.005zM301.72 11.985c-.31-1.407-1.154-2.608-2.37-3.378-.87-.55-1.87-.84-2.894-.84-1.86 0-3.565.935-4.56 2.504l-24.543 38.662c-3.495-.435-7.087.575-9.835 2.766-1.62-.456-3.44.227-4.352 1.656-.27.424-.443.88-.538 1.354-1.462-.166-2.932.518-3.73 1.78-.56.876-.74 1.918-.514 2.932.076.342.2.67.358.973l-10.124 9.617c-.033.034-.067.062-.098.098-.844.89-1.287 2.004-1.248 3.134.02.655.17 1.216.286 1.667l.07.247c1.288 5.26 4.89 10.245 9.905 13.706.097.092.203.166.31.24l.593.373c.11.073.227.135.347.187 3.976 2.31 8.313 3.528 12.568 3.528 1.388 0 2.754-.134 4.06-.393l.247-.054.352-.074c.06.77.24 1.54.558 2.29 1.166 2.754 3.85 4.535 6.84 4.535.992 0 1.965-.2 2.89-.59.76-.323 1.44-.766 2.038-1.294.37.3.777.547 1.216.732.047.414.13.828.3 1.227.683 1.614 2.26 2.664 4.016 2.664.58 0 1.154-.116 1.694-.344 2.21-.938 3.25-3.5 2.313-5.708-.32-.75-.835-1.372-1.47-1.828.103-.838.016-1.704-.332-2.532-.782-1.843-2.584-3.037-4.588-3.037-.455 0-.9.083-1.333.207-1.207-2.644-3.824-4.348-6.745-4.348-.75 0-1.485.114-2.195.335l2.826-8.53c1.398.068 2.72-.622 3.47-1.802.56-.878.74-1.92.514-2.934-.098-.434-.263-.838-.49-1.205.388-.284.723-.642.993-1.063.942-1.486.745-3.375-.36-4.642.817-3.436.188-7.1-1.682-10.074l24.543-38.664c.772-1.217 1.025-2.662.71-4.07h-.006l-.01-.01z"/><ellipse transform="rotate(-22.94 281.468 93.756)" fill="#AB8B2F" cx="281.468" cy="93.755" rx="2.222" ry="2.222"/><ellipse transform="rotate(-22.94 283.85 97.87)" fill="#AB8B2F" cx="283.85" cy="97.867" rx="1.598" ry="1.598"/><ellipse transform="rotate(-22.94 273.393 92.06)" fill="#AB8B2F" cx="273.393" cy="92.06" rx="4.667" ry="4.667"/><path fill="#AB8B2F" d="M297.533 10.75c-1.234-.558-2.692.03-3.416 1.17L268.66 52.007c.773.228 1.533.55 2.258.967l.008-.016.178.124c.062.042.13.07.19.11l-.01.015c.688.476 1.3 1.027 1.835 1.63l25.558-40.262c.85-1.337.344-3.147-1.155-3.83h.01v.008z"/><path fill="#D8AB28" d="M255.483 57.68l-.987 1.014 18.612 11.817.5-1.324.467-1.217-17.69-11.23m18.93 7.99l.034-.092h-.008c.994-3.416.152-7.127-2.215-9.793-.538-.6-1.15-1.145-1.836-1.623l.01-.015c-.063-.04-.125-.074-.187-.112-.063-.04-.12-.087-.183-.124l-.01.016c-.725-.42-1.482-.74-2.257-.967-3.412-1.012-7.132-.192-9.805 2.158v-.008l-.068.074c-.284.25-.54.54-.8.828l16.916 10.742c.155-.356.31-.713.414-1.077l-.004-.006zm-34.8 7.276c-.305.32-.506.704-.49 1.135.017.446.166.906.276 1.357 1.113 4.54 4.276 9.048 9.028 12.257l-.008.012c.097.062.198.116.298.176.1.062.194.133.294.197l.004-.014c4.923 2.936 10.352 3.88 14.932 2.953.455-.09.935-.152 1.345-.328.398-.17.66-.518.818-.926l5.343-16.112-19.537-12.4-12.308 11.69.006.002z"/><path fill="#AB8B2F" d="M275.835 66.4l-.93-.59-16.917-10.738-.93-.583c-.53-.337-1.23-.182-1.564.346s-.18 1.228.35 1.564l.54.345 17.69 11.23.546.346c.528.336 1.228.18 1.563-.347.335-.532.178-1.232-.352-1.567l.005-.006zm-1.014 5.196l-1.71-1.085L254.5 58.697l-1.713-1.08c-.528-.336-1.227-.18-1.563.35-.335.527-.178 1.227.352 1.562l1.25.797 19.533 12.402 1.253.793c.53.335 1.23.178 1.565-.352.335-.53.186-1.226-.344-1.56h-.003l-.006-.012z"/><path fill="#F04A3E" d="M382.706 11.22c-.794 0-1.44.65-1.44 1.447V26.18c0 .795.644 1.44 1.44 1.44.794 0 1.442-.643 1.442-1.44V12.667c0-.796-.648-1.446-1.442-1.446zM359.738 22.262c-.55-.54-1.5-.528-2.038.023-.268.275-.413.636-.413 1.02.007.385.16.747.436 1.01l8.906 8.71c.268.257.626.404 1.005.404.39 0 .757-.155 1.033-.437.266-.275.413-.636.408-1.02-.004-.387-.16-.745-.436-1.01l-8.902-8.7zM408.002 22.285c-.538-.55-1.488-.562-2.036-.023l-8.907 8.7c-.276.27-.43.63-.437 1.016 0 .386.145.75.413 1.024.276.276.643.427 1.033.427.376 0 .734-.148 1.005-.414l8.906-8.7c.276-.27.428-.633.433-1.016.004-.386-.143-.75-.414-1.024v.004l.002.005z"/><path fill="#FFF" d="M421.095 82.677c0-.23-.028-.454-.078-.67l-2.18-20.278c-.015-.125-.036-.253-.065-.368-.43-2.463-2.204-4.64-5.28-6.49-.216-.222-.44-.426-.677-.614-.473-2.268-2.09-4.118-4.2-4.935-.804-2.066-2.585-3.65-4.775-4.173-1.125-2.567-3.847-4.316-6.8-4.063-1.603-2.12-4.133-3.432-6.906-3.432-.454 0-.904.034-1.35.108-1.475-1.52-3.51-2.4-5.704-2.4-2.143 0-4.16.864-5.642 2.347-3.085-.36-6.083 1.01-7.873 3.374-2.96-.252-5.68 1.5-6.794 4.063-2.196.52-3.982 2.105-4.78 4.178-2.014.78-3.568 2.486-4.128 4.59-4.154 2.034-6.51 4.534-7.008 7.454-.03.114-.05.235-.064.357l-2.158 20.062c-.01.104-.018.212-.016.32-.046.326-.07.65-.07.97 0 9.823 19.834 14.306 38.266 14.322h.04c18.415-.016 38.233-4.5 38.233-14.323v-.123c.007-.092.012-.188.012-.284h-.005l.003.004z"/><path fill="#FFF" d="M382.85 94.515h-.038c-19.855-.014-35.38-5.034-35.38-11.432 0-.23.024-.472.077-.727v-.253l2.156-20.062.007.02c.28-2.342 2.787-4.472 6.868-6.175l.008.07c0-.024 0-.047-.007-.07-.008-.07-.022-.138-.022-.213 0-2.158 1.75-3.903 3.902-3.903 0-2.158 1.75-3.903 3.902-3.903.267 0 .528.028.774.078 0-.034-.007-.06-.007-.085 0-2.157 1.744-3.902 3.9-3.902.736 0 1.408.214 1.998.567.746-2.304 2.915-3.975 5.47-3.975.75 0 1.46.153 2.117.413.865-1.602 2.54-2.71 4.492-2.71 2.02 0 3.74 1.18 4.58 2.87.75-.358 1.585-.573 2.47-.573 2.558 0 4.725 1.668 5.476 3.975.585-.353 1.262-.567 1.997-.567 2.157 0 3.902 1.745 3.902 3.902l-.007.078c.248-.052.505-.08.77-.08 2.16 0 3.903 1.745 3.903 3.902 2.158 0 3.903 1.745 3.903 3.902 0 .074-.01.143-.022.212l-.005.07c.63.25 1.17.664 1.593 1.183 2.548 1.453 4.097 3.122 4.315 4.92l.01-.017 2.22 20.64h-.01c.015.138.022.27.022.404 0 6.395-15.524 11.415-35.343 11.43v.008l.01.003z"/><path fill="#FFF" d="M356.86 63.625c-.907-.447-1.614-.918-2.096-1.4.482.482 1.194.953 2.103 1.4h-.007zm25.93 3.822h-.04c-2.975 0-5.844-.108-8.544-.307 2.71.206 5.578.314 8.55.314h.07-.035v-.007z"/><path fill="#D02030" d="M354.6 57.653c-.09.167-.175.344-.247.523-.098.252-.18.516-.222.794-.03.195-.045.397-.045.604 0 .188.027.367.055.55-.07.194-.115.384-.115.575 0 .527.253 1.032.735 1.523.482.482 1.193.95 2.093 1.4.606.287 1.3.574 2.073.838.773.265 1.63.53 2.555.765s1.93.46 2.99.666c.71.14 1.445.27 2.21.39 2.295.364 4.82.653 7.517.85 2.702.2 5.57.308 8.546.308h.07s.724.027.95 0h.07c15.868-.01 28.716-3.025 28.716-6.75 0-.19-.038-.38-.107-.572.028-.184.058-.363.058-.55 0-.93-.332-1.77-.872-2.44-.422-.516-.964-.93-1.593-1.18 0-.024 0-.047.01-.07.01-.07.022-.138.022-.214 0-2.157-1.75-3.902-3.902-3.902 0-2.157-1.75-3.902-3.902-3.902-.268 0-.528.028-.776.078 0-.03.007-.055.007-.08 0-2.158-1.744-3.902-3.902-3.902-.735 0-1.416.215-1.997.57-.758-2.308-2.922-3.98-5.48-3.98-.89 0-1.72.217-2.47.575-.84-1.693-2.565-2.87-4.583-2.87-1.95 0-3.627 1.106-4.49 2.708-.656-.26-1.366-.413-2.116-.413-2.557 0-4.724 1.67-5.475 3.976-.584-.355-1.26-.57-1.996-.57-2.157 0-3.902 1.746-3.902 3.904l.005.075c-.253-.054-.505-.08-.776-.08-2.157 0-3.9 1.743-3.9 3.9-2.16 0-3.903 1.746-3.903 3.903 0 .076.01.145.022.214l.004.07c-.826.33-1.508.94-1.944 1.697l.004.014.007.005z"/><path fill="#F04A3E" d="M418.168 82.682h.01L415.96 62.04v.01c-.22-1.8-1.768-3.465-4.316-4.92.54.665.873 1.514.873 2.44 0 .187-.03.367-.058.55.068.193.11.383.11.574 0 3.723-12.85 6.74-28.716 6.748h-.073c-.23.028-.945 0-.947 0h-.074c-2.976 0-5.845-.107-8.544-.307-2.695-.197-5.223-.482-7.516-.85-.766-.12-1.503-.252-2.212-.39-1.063-.206-2.066-.43-2.99-.665-.926-.237-1.783-.498-2.556-.767-.774-.268-1.47-.55-2.075-.85-.907-.435-1.614-.906-2.096-1.395s-.733-1.003-.733-1.526c0-.193.046-.384.114-.574-.028-.184-.058-.367-.058-.55 0-.208.016-.414.046-.607.046-.274.126-.538.225-.793.068-.184.153-.356.252-.524.436-.764 1.116-1.37 1.942-1.698v-.07c-4.086 1.704-6.588 3.834-6.87 6.176l-.01-.018-2.157 20.062v.253c-.05.252-.076.493-.076.727 0 6.395 15.524 11.415 35.377 11.43h.038c19.818-.015 35.342-5.035 35.342-11.43 0-.133-.007-.266-.023-.404h-.004l-.005.012z"/><path fill="#D02030" d="M378.386 82.78c.207-.56.207-1.143.07-1.72-.26-1.08-.866-1.93-1.87-2.5-.37-.21-.764-.32-1.193-.267-.744.092-1.285.574-1.45 1.285-.035.16-.063.317-.092.473v.605c.007.014.02.032.024.053.04.44.16.858.36 1.255.43.85 1.067 1.492 2.006 1.814.27.09.544.16.83.114.667-.113 1.09-.517 1.31-1.114l.006.004zm9.9 2.96c-.298-.492-.638-.963-.977-1.422-.552-.75-1.18-1.423-1.946-1.974-.858-.62-1.813-.89-2.876-.757-1.13.144-2.118.606-2.908 1.4-.833.842-1.446 1.836-1.882 2.915-.177.436-.287.895-.425 1.343-.252.82.184 1.738 1 2.09.42.182.862.164 1.302.095.473-.07.918-.23 1.355-.39.608-.21 1.207-.436 1.854-.514.59-.07 1.17-.053 1.738.138.537.183 1.065.39 1.593.596.372.138.746.264 1.155.26.13-.005.26-.007.39-.03.52-.085.95-.315 1.216-.77.207-.357.212-.757.145-1.147-.107-.66-.396-1.258-.738-1.825h.004v-.007zm-3.615-6.602c.39.172.786.206 1.195.045.473-.183.872-.468 1.198-.85.643-.756.907-1.63.932-2.66l-.053-.575c-.062-.643-.32-1.2-.808-1.642-.512-.465-1.19-.654-1.935-.32-.563.247-.98.642-1.298 1.142-.374.597-.565 1.24-.636 1.924-.06.597.007 1.175.248 1.728.237.535.597.964 1.157 1.217v-.01zm-5.44-.175c.286.17.584.32.93.333.52.016.953-.174 1.31-.533.504-.51.704-1.147.738-1.83.04-.77-.115-1.507-.468-2.2-.326-.654-.785-1.18-1.47-1.492-.37-.176-.752-.275-1.17-.178-.52.124-.886.447-1.17.867-.345.504-.44 1.074-.44 1.663 0 .512.086 1.015.265 1.497.285.776.742 1.428 1.48 1.87v.005l-.004-.002zm11.753-.67c-.282-.23-.61-.372-.982-.356-.564.023-1.07.23-1.496.58-1.07.88-1.52 2.02-1.423 3.357.036.496.254.94.62 1.304.3.298.667.475 1.103.46.647-.02 1.203-.27 1.666-.69.858-.78 1.25-1.754 1.285-2.9-.012-.116-.012-.263-.035-.403-.082-.537-.303-1.003-.734-1.354l-.003.003z"/><path fill="#FFF" d="M547.33 62.372c-1.086-.706-2.72-1.45-4.344-.983-.89.255-1.63.845-2.09 1.658-.87 1.556-1.875 3.077-3 4.528l-4.32-6.47c.157-.037.312-.077.463-.123 4.79-1.375 7.564-6.392 6.186-11.178-1.03-3.59-4.226-6.2-7.95-6.503l-.162-.01c-.197-.01-.395-.023-.595-.018l-.265.007c-.193.008-.388.017-.542.03l-.123.017c-.355.037-.713.1-1.128.195l-.274.07c-.07.014-.133.033-.195.05l-.093.03c-1 .287-2.02.73-3.043 1.32l-.065.042c-.464.274-.922.572-1.363.883l-.048.037c-.014.007-.083.058-.097.07-.41.297-.762.576-1.045.813-2.485-.488-5.38-.48-8.54.016.7-1.417.678-3.147-.214-4.582l-.023-.04c-1.115-1.757-3.275-2.582-5.28-2.006-.41.117-.812.293-1.177.523l-15.444 9.583c-.976-3.384-2.292-6.898-3.88-10.326-7.205-15.573-15.69-22.412-21.435-22.76-1.296-1.968-3.735-2.88-6.016-2.226-.447.133-.88.32-1.288.565-2.554 1.533-3.39 4.863-1.848 7.422L473.85 49.25c2.067 3.444 2.67 5.046 2.773 5.365l6.63 23.04c-1.045-.675-2.055-1.395-3.014-2.16-.907-.728-2.068-.963-3.174-.644-1.398.4-2.322 1.54-2.898 2.362-1.387 1.984-.983 4.724.922 6.243 2.006 1.603 4.18 3.06 6.472 4.316 11.16 6.132 24.858 7.55 37.578 3.886 12.674-3.646 23.5-12.077 29.705-23.132 1.185-2.113.523-4.798-1.51-6.124v-.01l-.006-.018zM496.825 75.9c14.283-4.106 23.002-9.884 26.887-12.92l7.56 11.34c-4.366 3.517-9.47 6.174-14.887 7.735-6.72 1.928-13.756 2.188-20.445.755l-1.885-6.155c.934-.24 1.858-.492 2.77-.755z"/><path fill="#E55625" d="M523.68 49.877l.254-.22c-2.942-.858-6.93-.784-11.322.234l3.45 5.974c2.405-1.76 4.948-3.753 7.62-5.985l-.003-.003zm-42.566-4.506l.12.203c1.615 2.292 2.95 6.26 2.95 6.26h-.004c.453 1.16.887 2.415 1.268 3.734.244.843.386 1.477.45 1.95l5.017-3.116c-.91-4.117-2.448-8.678-4.598-13.32-6.187-13.374-15.136-22.52-20.485-21.16l14.48 24.113s.317.48.807 1.34h-.006v-.002zm18.713 20.397l1.788-.878c3.21-1.63 6.93-3.786 11.14-6.676l-4.142-7.167c-1.364.472-2.746 1.027-4.13 1.668-5.416 2.508-9.83 5.834-12.588 9.19-.023-.962-.093-1.974-.216-3.033l-4.163 2.582c-.24.15-.494.24-.754.284l2.4 7.836c1.824-.367 5.46-1.343 10.66-3.816l.004.01z"/><path fill="none" d="M499.827 65.767l1.788-.878c3.21-1.633 6.93-3.786 11.14-6.676l-4.142-7.167-1.138-1.97-15.793 9.802-4.167 2.58c-.237.15-.492.24-.752.285l2.4 7.838c1.824-.367 5.46-1.342 10.66-3.816h.004zm-9.07 9.018l3.13 10.22c7.456 1.88 15.53 1.765 23.217-.45 6.633-1.903 12.67-5.294 17.627-9.753l-10.473-15.7s-10.41 10.335-33.497 15.683h-.003z"/><path fill="#F47E47" d="M545.907 64.555c-.87-.567-2.23-1.138-2.74-.232-1.526 2.726-3.39 5.26-5.52 7.58L528.39 58.02l-.013-.135c1.452.822 3.217 1.087 4.947.59 3.41-.983 5.38-4.546 4.4-7.957-.763-2.643-3.076-4.413-5.668-4.622l-.112-.01c-.14-.01-.278-.016-.418-.013-.062 0-.125 0-.185.004-.14.005-.278.01-.417.024l-.03.005c-.265.028-.535.075-.802.14-.1.023-.2.04-.3.07-.008 0-.015 0-.024.004l-.02.006c-.932.25-1.81.662-2.586 1.11h-.005c-.47.28-.905.562-1.277.836v-.007c-.014.012-.037.028-.056.047-.773.557-1.296 1.035-1.45 1.184-.16.13-.3.25-.43.362l-.256.22c-2.67 2.24-5.214 4.228-7.618 5.993l-3.456-5.97-1.702-2.95.687-.425c.987-.613 1.29-1.91.674-2.893v-.007c-.61-.985-1.904-1.29-2.89-.674l-18.465 11.456-5.016 3.112c-.066-.472-.21-1.106-.45-1.95-.378-1.325-.813-2.57-1.265-3.733 0 0-1.33-3.967-2.945-6.26l-.123-.2c-.488-.86-.806-1.335-.806-1.335l-14.473-24.12-.704-1.167c-.796-1.336-2.52-1.765-3.848-.97s-1.76 2.52-.962 3.85l15.756 26.244c2.108 3.516 2.816 5.302 3.042 5.987l8.323 28.934c-1.114-.488-2.213-1.012-3.28-1.602-1.964-1.076-3.83-2.323-5.557-3.698-.822-.65-1.718.337-2.31 1.185-.588.84-.405 2.053.417 2.708 1.89 1.51 3.944 2.88 6.1 4.065 10.562 5.8 23.54 7.135 35.603 3.665 12.02-3.456 22.28-11.44 28.15-21.906.51-.906.208-2.097-.658-2.664l-.003.005zm-59.144-2.81c.262-.047.517-.135.754-.284l4.165-2.58 15.793-9.802 1.138 1.97 4.143 7.166c-4.213 2.887-7.934 5.04-11.148 6.675l-1.784.877c-5.202 2.47-8.837 3.45-10.66 3.816l-2.4-7.838zm30.34 22.81c-7.687 2.212-15.755 2.328-23.213.452l-3.135-10.22c23.086-5.353 33.5-15.688 33.5-15.688l10.474 15.7c-4.957 4.46-10.996 7.85-17.63 9.763l.004-.007z"/><path fill="#0091BB" d="M645.1 65.078c-.033.005-.07 0-.103 0-.184.018-.368.03-.563.013h.037c.19.02.376.006.558-.01.028-.004.065 0 .09 0v-.004h-.02l.004.002z"/><path fill="#FFF" d="M663.64 32.47c.195 0 .39-.006.585-.015 2.89-.152 5.555-1.39 7.503-3.497 1.965-2.123 2.968-4.868 2.816-7.73-.25-4.827-3.813-8.844-8.518-9.858-1.56-2.17-4.117-3.51-6.846-3.51-.347 0-.694.022-1.03.06-2.745.335-5.082 1.95-6.37 4.29-5.14.722-8.99 5.18-8.78 10.35-.808 1.127-1.235 2.498-1.157 3.9.072 1.387.607 2.643 1.447 3.64-2.324.325-4.116 2.327-4.116 4.745v1.213l-4.888-5.503-3.596-4.247c-.072-.09-.152-.173-.24-.25-.908-.902-2.143-1.416-3.426-1.416-1.25 0-2.413.488-3.27 1.365-1.004 1.025-3.33 3.9-3.75 4.42l-30.15 34.036c-1.754 1.985-1.572 5.026.413 6.78l.158.13 7.056 5.352c1.09.824 2.59 1.056 3.88.594l.216-.083 6 14.333c.83 1.972 2.905 3.25 5.283 3.25h28.004c2.35 0 4.413-1.252 5.258-3.195l6.224-14.4c.195.092.395.176.6.25.447.16.915.238 1.387.238.897 0 1.78-.294 2.492-.834l7.056-5.34.157-.13c.962-.848 1.534-2.023 1.612-3.303.077-1.278-.348-2.513-1.2-3.477l-9.458-10.68V34.846c0-1.01-.314-1.95-.852-2.724 1.393-.125 2.723-.52 3.932-1.165 1.67.983 3.597 1.512 5.568 1.512z"/><circle fill="#14BBD3" cx="630.867" cy="85.428" r=".838"/><path fill="#0091BB" d="M617.548 63.434h-.022c-1.978 0-3.583 1.397-3.583 3.12v4.34c0 .298.28.54.628.54h5.937c.347 0 .63-.242.63-.54v-4.34c0-1.723-1.605-3.12-3.587-3.12h-.002zm18.172 0h-.02c-1.98 0-3.587 1.397-3.587 3.12v4.34c0 .298.282.54.63.54h5.935c.346 0 .628-.242.628-.54v-4.34c0-1.723-1.603-3.12-3.588-3.12h.002z"/><path fill="#14BBD3" d="M624.145 48.574c-.087 0-.165-.005-.247-.01.082.008.164.01.25.01h-.003zm6.224.15h.004l-.25.006c.083 0 .165 0 .247-.007v.002zm-24.57 19.76c.018 0 .03-.004.044-.006-.013 0-.026.006-.043.008v-.002z"/><path fill="#0091BB" d="M662.434 66.41l-2.217-2.504-7.93-8.956-10.43-11.784-9.612-10.854-3.618-4.268v.006c-.775-.853-2.145-.99-2.96-.162-.974 1-3.613 4.272-3.613 4.272l-27.967 31.588-2.22 2.5c-.77.873-.692 2.206.183 2.98l7.054 5.35c.386.29.893.37 1.348.204 1.17-.418 1.956-1.45 1.928-2.6 0-.02.01-.043.01-.065l-.075-.173c1.642-.173 2.86-1.482 2.723-2.942-.015-.163-.052-.316-.097-.468.174.013.356.015.538 0 .108-.01.217-.022.32-.043l.044-.012c.093-.022.184-.04.27-.065l.023-.007c.195-.054.38-.13.556-.217 1.013-.52 1.66-1.517 1.56-2.6-.02-.217-.08-.427-.15-.624h.09c.016.006.033 0 .05.006.165.013.332.022.505.01h.065v-.003h.033c1.66-.162 2.896-1.48 2.758-2.948 0-.02-.006-.043-.01-.06h.07c1.667-.156 2.907-1.478 2.772-2.953-.02-.162-.056-.318-.102-.467.174.008.356.013.542-.005 1.664-.156 2.903-1.477 2.767-2.953-.023-.216-.077-.416-.153-.61l.152.013c.098 0 .2.008.302.006h.035c.136.007.273.007.41-.006.13-.013.255-.035.376-.06l.043-.01c.11-.028.226-.058.336-.095 1.274-.42 2.134-1.55 2.015-2.79 0-.022-.004-.04-.01-.06h.07c1.67-.157 2.904-1.48 2.77-2.952-.016-.162-.052-.315-.098-.465.086.01.166.01.25.01.096 0 .19 0 .29-.01 1.34-.126 2.384-1.01 2.68-2.114.23 1.18 1.314 2.14 2.718 2.27.1.01.194.012.292.012.08 0 .163 0 .245-.007-.043.152-.08.304-.096.466-.14 1.474 1.104 2.796 2.773 2.948h.065c0 .02-.01.043-.013.065-.124 1.35.914 2.578 2.378 2.88.13.03.26.053.395.066h.034c.24.02.464.008.69-.016-.074.195-.13.396-.152.61-.087.937.39 1.8 1.165 2.356l.026-.007c.16.115.326.22.508.304v.017c.33.143.69.243 1.075.282.182.015.362.01.54 0-.046.15-.085.303-.1.466-.135 1.473 1.105 2.794 2.773 2.953.02 0 .043-.005.065 0 0 .017-.006.036-.008.058-.134 1.473 1.105 2.795 2.773 2.95h.08c.19.014.375 0 .557-.014h.093c-.073.194-.13.4-.15.616-.138 1.473 1.104 2.795 2.772 2.95.182.018.36.016.537 0-.043.153-.08.31-.095.47-.088.896.345 1.726 1.06 2.276h.035c.316.238.685.43 1.09.546l.07.013c.118.033.237.06.363.08.05.005.093.023.14.023.016 0 .03.01.044.01h.072l-.015.06c-.11 1.212.714 2.326 1.942 2.766.45.16.958.085 1.343-.207l7.054-5.345c.873-.773.953-2.106.18-2.98v.012l.004.01z"/><path fill="#14BBD3" d="M651.304 71.994l-.07-.015c-.42-.123-.803-.305-1.12-.552-.72-.552-1.15-1.382-1.063-2.275.016-.164.053-.318.1-.47-.175.013-.352.016-.543 0-1.66-.15-2.903-1.473-2.762-2.953.02-.216.078-.422.15-.62h-.092c-.18.022-.368.033-.557.018h-.086c-1.67-.16-2.904-1.482-2.77-2.955 0-.022.012-.043.014-.06-.022-.005-.044 0-.065 0-1.67-.16-2.91-1.48-2.774-2.956.015-.16.054-.316.1-.466-.18.012-.36.017-.542 0-.386-.038-.746-.137-1.075-.28-.19-.087-.37-.202-.532-.32-.78-.553-1.252-1.418-1.165-2.354.02-.216.076-.416.15-.61-.226.02-.454.038-.692.017h-.03c-.136-.01-.268-.033-.396-.065-1.462-.304-2.5-1.53-2.374-2.882 0-.022.01-.043.013-.065h-.065c-1.668-.15-2.91-1.472-2.773-2.945.015-.165.052-.32.097-.468-.078.004-.16.006-.242.006-.096 0-.195 0-.29-.01-1.405-.13-2.488-1.093-2.72-2.27-.297 1.104-1.343 1.988-2.68 2.113-.1.01-.195.013-.29.013-.087 0-.17 0-.25-.007.042.152.08.303.096.468.134 1.474-1.105 2.796-2.773 2.952h-.065c0 .02.006.04.01.06.113 1.242-.75 2.37-2.016 2.79-.113.038-.228.07-.343.094-.016 0-.03 0-.044.006-.12.022-.242.044-.368.057-.143.01-.282.01-.416.003h-.035c-.102 0-.203 0-.303-.01l-.152-.014c.076.194.13.398.152.612.14 1.474-1.105 2.795-2.773 2.953-.18.018-.36.013-.534 0 .043.152.086.308.1.468.138 1.474-1.106 2.795-2.774 2.95h-.065c0 .023.01.04.01.062.142 1.47-1.093 2.786-2.75 2.946h-.035l-.018.006h-.06c-.173.013-.34 0-.507-.01h-.054c-.035-.006-.065 0-.098-.006.074.195.13.403.152.62.102 1.083-.546 2.09-1.56 2.6-.173.093-.362.17-.56.227l-.02.007c-.087.028-.174.043-.267.065-.013 0-.026.008-.043.01-.102.02-.21.037-.32.043-.18.022-.36.017-.536.004.044.152.08.304.096.466.137 1.46-1.083 2.767-2.723 2.942l.073.174-.006.064 7.682 18.35c.397.95 1.523 1.592 2.79 1.592h7.746l-.015-13.248c0-.593.498-1.077 1.127-1.077h9.96c.62 0 1.123.487 1.123 1.08l.052 13.25h8.006c1.257 0 2.377-.63 2.785-1.572l7.99-18.48c-.115-.018-.22-.053-.33-.08v.008l.01-.002zm-30.17-5.423v4.32c0 .07-.022.135-.044.196-.095.204-.32.347-.585.347h-5.936c-.348 0-.63-.243-.63-.542v-4.336c0-1.723 1.608-3.12 3.586-3.12h.026c1.98 0 3.583 1.397 3.583 3.12v.02-.003h-.002zm18.176 0v4.32c0 .3-.28.543-.628.543h-5.94c-.347 0-.63-.243-.63-.542v-4.336c0-1.723 1.604-3.12 3.587-3.12h.02c.936 0 1.786.314 2.423.823.715.572 1.17 1.387 1.17 2.297v.02-.003h-.003z"/><path fill="#14BBD3" d="M618.772 54.94l.043-.012c-.022 0-.032 0-.043.004v.007zm-12.657 13.475l.022-.01c-.01 0-.015.005-.022.008v.002zm45.19 3.58l-.072-.016.07.007v.007zm.99-37.148c0-1.162-.943-2.106-2.11-2.106h-6.217c-1.17 0-2.11.945-2.11 2.11v8.33l10.428 11.776c0-.03.006-.056.006-.086V34.85l.002-.003z"/><path fill="#0091BB" d="M664.085 29.764c4.52-.238 7.998-3.993 7.77-8.395-.205-4.044-3.468-7.21-7.485-7.53-1.022-2.18-3.364-3.56-5.892-3.25-2.405.293-4.275 2.02-4.862 4.212-.254-.01-.514-.01-.78 0-4.15.217-7.35 3.672-7.14 7.72.016.32.062.632.118.94-.832.68-1.343 1.718-1.282 2.855.1 1.928 1.783 3.402 3.76 3.302.76-.044 1.446-.304 2.005-.73 1.01.417 2.13.63 3.302.564 1.738-.086 3.305-.752 4.527-1.783 1.564 1.4 3.676 2.205 5.962 2.088l-.005.006zM631.678 77.8h-9.966c-.622 0-1.127.483-1.127 1.077l.022 13.248h12.247l-.054-13.248c0-.594-.503-1.077-1.122-1.077zm-.81 8.467c-.464 0-.84-.375-.84-.84 0-.462.376-.837.84-.837.46 0 .838.375.838.838 0 .464-.377.84-.84.84z"/><path fill="none" d="M1206.824-37.952h685.63v175.49h-685.63z"/><text transform="translate(1373.26 -10.36)" fill="#64656A" font-family="'ProximaNovaSoft-Bold'" font-size="41">Who is CareGuide?</text><text transform="translate(1212.15 32.44)" fill="#808284" font-family="'ProximaNova-Light'" font-size="19">CareGuide is a family of online services and our mission is simple: pair families and</text><text transform="translate(1212.13 55.24)" fill="#808284" font-family="'ProximaNova-Light'" font-size="19">individuals with great care providers. With thousands of user profiles, you'll be able</text><text transform="translate(1238.73 78.04)" fill="#808284" font-family="'ProximaNova-Light'" font-size="19">to find the best care provider for you, in your area, in just about any industry.</text><text transform="translate(1275.57 123.64)" fill="#808284" font-family="'ProximaNova-Light'" font-size="19">We're committed to providing excellent care services for everyone.</text><path fill="none" d="M1164.076 509.52h787.633v556.09h-787.634z"/><text transform="translate(1164.077 537.114)" fill="#64656A" font-family="'ProximaNovaSoft-Bold'" font-size="41">FAQ</text><text transform="translate(1164.077 579.914)" fill="#808284" font-family="'ProximaNova-Light'" font-size="19">Why is there a recurring CAREGUIDE charge on my credit card each month?</text><path fill="none" stroke="#F2F2F3" stroke-miterlimit="10" d="M1035.15 323.53h1028.977"/><path fill="#FFF" d="M1445.504 181.795v.002-.002zm8.49 23.413c.01-.178.014-.362.008-.522-.002-.03-.004-.07-.008-.107-.015-.306-.06-.625-.132-.948-.02-.09-.046-.18-.08-.313-.032-.115-.064-.23-.103-.347-.01-.037-.024-.074-.04-.115-.006-.023-.018-.053-.03-.08-.22-.587-.534-1.174-.933-1.745-.463-.756-1.263-1.573-2.38-2.43l-.255-.19c-.25-.186-.525-.38-.827-.583-.143-.095-.29-.193-.446-.293-.703-.453-1.505-.924-2.383-1.4-.48-.26-.968-.515-1.474-.768 1.353-1.925 2.083-4.214 2.083-6.613 0-.437-.026-.876-.077-1.315l.05-.036c.22-.165.435-.357.66-.587.18-.184.34-.375.485-.566.15-.2.275-.388.378-.57.278-.484.482-1.007.61-1.557.296-1.283.146-2.65-.424-3.846-.17-.352-.375-.69-.61-1.005-1.11-1.49-2.87-2.378-4.71-2.378-1.236 0-2.412.39-3.398 1.127l-.107.08c-2.1-.86-4.407-1.085-6.7-.602-.362.076-.677.156-.968.244-.336.102-.666.222-.992.354l-.1-.075c-.282-.21-.592-.4-.92-.558-.03-.015-.06-.032-.084-.042-.25-.117-.522-.216-.83-.303-.14-.04-.278-.077-.42-.104-.376-.077-.763-.116-1.148-.116-1.837 0-3.597.885-4.708 2.374-.073.096-.138.195-.223.33-1.267 1.953-1.27 4.453-.01 6.37.258.396.556.75.883 1.05.143.132.295.26.454.378l.04.03c-.058.47-.086.907-.086 1.322v.09c-.56-.264-1.12-.465-1.675-.596l-.062-.015c-.052-.014-.102-.022-.105-.022-.41-.087-.818-.137-1.214-.15l-.172-.002c-.162 0-.32.008-.47.02-.164.01-.328.03-.45.05-.218.03-.43.077-.67.137-1.31.32-2.444 1.002-3.276 1.975-.623.726-1.042 1.563-1.248 2.49-.06.27-.1.548-.12.872-.013.128-.02.256-.023.385v.014s-.006.07-.005.19c0 .094.004.233.017.408.01.137.027.3.053.476.02.133.047.277.08.427.11.513.278 1.004.496 1.455.067.14.14.28.22.417.143.246.314.493.525.758l.087.105c.23.273.487.524.76.747.144.13.302.263.47.393.593.462 1.28.868 2.05 1.21l.026.015c1.685.954 3.383 1.61 4.635 2.02-.115.346-.215.7-.3 1.055-.16.682-.266 1.384-.31 2.09-.338-.04-.657-.05-.974-.032-.67.035-1.31.197-1.905.48-.69.326-1.306.778-1.833 1.34-.5.536-.913 1.165-1.226 1.87-1.015 2.283-.894 5.174.32 7.736.595 1.26 1.438 2.393 2.435 3.283l.135.11c.234.203.48.393.756.582 2.186 1.51 4.785 1.83 6.88.84.125-.062.244-.13.36-.203l.074-.044c.885-.513 1.61-1.22 2.16-2.1.02-.026.036-.052.052-.08l.033-.052.034-.056.784-1.29c1.9.68 3.993.865 6.003.527.426-.07.853-.167 1.27-.285.2-.055.396-.117.592-.183l.747 1.228c.008.01.014.023.02.033l.05.08c.03.046.06.092.093.134l.06.082c.54.824 1.234 1.483 2.06 1.963l.072.043c.118.072.237.14.36.2.816.386 1.695.582 2.618.582 2.017 0 4.098-.965 5.71-2.648.372-.39.72-.817 1.032-1.272.32-.464.605-.96.847-1.474.694-1.465 1.04-3.054 1.002-4.587-.006-.216-.018-.43-.038-.64-.123-1.25-.51-2.414-1.117-3.387.565-.783.94-1.687 1.09-2.653.043-.263.068-.502.075-.69h.002z"/><path fill="#5C642C" d="M1419.587 193.166c-1.01.634-1.362 1.895-.784 2.816.58.92 1.867 1.153 2.88.517 1.01-.635 1.36-1.896.782-2.817-.578-.92-1.866-1.153-2.877-.518zm6.228-11.8c-.825 1.102-.62 2.648.458 3.454l.01.007c.664-1.567 1.713-2.927 3.026-3.967l-.05-.038c-1.078-.804-2.62-.562-3.445.542zm18.946 3.472l.026-.018c1.076-.806 1.282-2.352.458-3.456-.825-1.104-2.367-1.346-3.444-.542l-.06.046c1.31 1.04 2.36 2.403 3.02 3.97zm-13.145 2.136c0-.547-.364-.99-.813-.99-.447 0-.81.442-.81.99s.363.993.81.993c.45 0 .812-.444.812-.993zm8.31-.99c-.45 0-.813.442-.813.99s.363.993.81.993c.448 0 .812-.444.812-.993 0-.546-.364-.99-.81-.99zm-3.215 4.028c-.064.46-.477.73-.752.86-.07.04-.146.07-.227.093l-.018.006c-.02.004-.038.01-.06.014-.08.02-.165.027-.252.027-.112 0-.22-.014-.32-.04h.003s-.046-.012-.115-.04l-.038-.014c-.263-.11-.783-.388-.842-.915-.008-.037-.013-.074-.013-.114 0-.46.593-.835 1.325-.835.675 0 1.23.322 1.314.734.006.036.01.07.01.105 0 .042-.006.083-.015.123zm-1.31-2.455c-2.567.044-4.522 2.284-4.522 3.74 0 .022.005.045.005.068 0 .036-.005.07-.005.107 0 1.35 1.005 2.463 2.307 2.638.478.713 1.29 1.183 2.215 1.183.923 0 1.737-.47 2.214-1.183 1.303-.175 2.308-1.288 2.308-2.638 0-.036-.003-.07-.005-.107.002-.022.007-.045.006-.068 0-1.454-1.955-3.694-4.52-3.74h-.002z"/><path fill="#799A3D" d="M1436.715 189.782c-.082-.412-.64-.73-1.313-.73-.733 0-1.326.373-1.326.836 0 .038.005.076.013.115.06.526.58.805.843.913l.038.016c.07.026.116.04.116.04l-.003-.002c.1.027.207.042.32.042.085 0 .17-.008.25-.026l.06-.015.02-.005c.08-.023.155-.053.225-.09.275-.133.687-.404.752-.863.01-.04.015-.082.015-.125 0-.034-.004-.07-.01-.103v-.002z"/><path fill="#5C642C" d="M1421.88 209.7c-1.96.93-2.59 3.702-1.41 6.193 1.182 2.492 3.727 3.76 5.686 2.83 1.96-.926 2.59-3.7 1.41-6.19-1.18-2.492-3.726-3.76-5.685-2.832zm26.965 0c-1.96-.927-4.505.34-5.686 2.832-1.18 2.492-.55 5.265 1.41 6.192 1.957.93 4.502-.34 5.683-2.83 1.182-2.492.55-5.265-1.408-6.193zm-10.04-7.59c-1.033.157-2.238.25-3.528.25s-2.495-.093-3.528-.25c-.702-.106-1.42.127-1.817.605-1.36 1.644-1.977 3.922-1.323 6.33.61 2.243 2.375 4.052 4.607 4.696 4.708 1.36 8.99-2.133 8.99-6.627 0-1.672-.597-3.202-1.586-4.398-.395-.478-1.114-.712-1.817-.604z"/><path fill="#799A3D" d="M1450.253 215.893c-1.18 2.492-3.726 3.76-5.684 2.83-1.96-.926-2.59-3.7-1.41-6.19 1.18-2.492 3.725-3.76 5.685-2.832 1.958.93 2.588 3.702 1.408 6.193zm-8.514-35.025l.06-.045c1.077-.805 2.62-.562 3.444.542.824 1.103.618 2.65-.458 3.455l-.025.017c-.66-1.565-1.708-2.928-3.02-3.97zm-6.463 33.17c-3.827 0-6.93-3.1-6.93-6.924 0-1.672.598-3.203 1.587-4.398.396-.48 1.115-.713 1.816-.605 1.033.157 2.237.25 3.527.25s2.496-.093 3.528-.25c.702-.106 1.42.127 1.817.605.988 1.196 1.585 2.726 1.585 4.398 0 3.826-3.102 6.926-6.93 6.926v-.002zm-9.12 4.686c-1.96.93-4.505-.34-5.686-2.83-1.18-2.492-.55-5.265 1.41-6.193 1.96-.927 4.505.34 5.686 2.832 1.18 2.492.55 5.265-1.41 6.192zm-.342-37.36c.825-1.103 2.367-1.346 3.444-.54l.05.037c-1.314 1.04-2.363 2.4-3.027 3.967l-.01-.007c-1.076-.806-1.283-2.352-.458-3.456zm4.987 4.62c.45 0 .812.443.812.99 0 .55-.364.993-.812.993-.448 0-.81-.444-.81-.993 0-.546.362-.99.81-.99zm4.6 1.573c2.565.044 4.52 2.284 4.52 3.74 0 .022-.004.045-.005.068 0 .036.005.07.005.107 0 1.35-1.004 2.463-2.306 2.638-.48.713-1.292 1.183-2.214 1.183-.924 0-1.738-.47-2.216-1.183-1.302-.175-2.307-1.288-2.307-2.638 0-.036.003-.07.004-.107 0-.022-.005-.045-.005-.068 0-1.454 1.953-3.694 4.52-3.74zm4.52-1.573c.448 0 .812.443.812.99 0 .55-.364.993-.812.993-.447 0-.81-.444-.81-.993 0-.546.363-.99.81-.99zm-18.242 10.514c-1.01.636-2.3.405-2.878-.516-.577-.92-.227-2.182.784-2.818 1.01-.633 2.298-.4 2.877.52.578.92.228 2.18-.783 2.815v-.002zm-3.92-2.423c-.348-.1-.562-.42-.478-.712.084-.293.436-.45.785-.35.35.1.563.42.48.713s-.436.45-.786.35zm.875-2.42c.27-.14.627.003.797.324.17.32.088.695-.18.838-.272.142-.627 0-.798-.323-.17-.32-.088-.694.18-.838zm2.1-.626c.3.045.5.373.445.732-.055.36-.345.613-.646.566-.302-.046-.502-.374-.447-.733.055-.36.345-.612.647-.566zm31.818 14.088c.033-.52-.036-1.09-.25-1.708-.008-.02-.012-.04-.02-.06l-.015-.04c-.175-.47-.433-.966-.8-1.487-.545-.916-2.36-2.89-8.446-5.77l-.37-.22c1.792-1.817 2.9-4.316 2.9-7.074 0-.67-.068-1.32-.19-1.953l.743-.556c1.905-1.42 2.268-4.157.81-6.11s-4.185-2.38-6.09-.955l-.79.59c-1.358-.686-2.89-1.075-4.515-1.075-1.62 0-3.15.387-4.503 1.07l-.784-.585c-1.905-1.423-4.63-.995-6.09.956-1.457 1.953-1.094 4.69.81 6.11l.728.543c-.125.637-.193 1.295-.193 1.967 0 1.11.182 2.175.512 3.173-1.078-1.002-1.844-1.453-2.328-1.657-.596-.303-1.148-.504-1.662-.624l-.042-.01c-.023-.006-.044-.008-.067-.012-.67-.145-1.276-.153-1.81-.067-1.934.264-3.557 1.595-3.98 3.486-.05.226-.075.453-.088.68-.014.123-.018.248-.02.374l-.002-.006s-.123 2.283 1.71 3.78l-.002-.005c.534.494 1.26.994 2.248 1.428 2.5 1.436 5.085 2.17 5.96 2.393-.724 1.464-1.133 3.115-1.133 4.864 0 .35.017.696.05 1.038-1.296-.44-2.534-.637-3.73-.07-2.857 1.353-3.776 5.394-2.055 9.025 1.72 3.63 5.43 5.48 8.284 4.126.86-.407 1.54-1.06 2.03-1.87l.002.002.05-.08.01-.018 1.436-2.36c1.395.677 2.956 1.057 4.606 1.057 1.587 0 3.092-.354 4.445-.985l1.392 2.288.012.018.05.08v-.003c.49.81 1.17 1.464 2.03 1.87 2.854 1.354 6.563-.494 8.284-4.125 1.415-2.986 1.042-6.246-.72-8.063.968-.854 1.546-2.077 1.595-3.367v-.002z"/><path fill="#5C642C" d="M1418.068 193.013c-.35-.1-.7.056-.785.35-.084.292.13.61.48.712.348.102.7-.055.784-.348.084-.294-.13-.613-.48-.714zm2.466-.686c.3.046.59-.206.646-.565.055-.358-.145-.687-.446-.734-.303-.046-.593.206-.648.565-.055.36.145.687.447.734zm-1.283.49c.27-.143.352-.52.182-.84-.17-.32-.527-.464-.797-.32-.268.14-.35.517-.18.838.17.322.527.465.797.323z"/><g><path fill="#A27BB7" d="M1378.12 208.923c.216-.254.416-.522.617-.79.095-.127.194-.248.286-.38.22-.31.422-.634.62-.962l.085-.135c1.432-2.418 2.267-5.223 2.267-8.23h-31.237c-.584-1.923-1.846-3.566-3.527-4.63.017.11.034.222.034.337 0 .536-.205 1.022-.532 1.4 1.056.79 1.87 1.875 2.31 3.13.02.082.08.327.138.596.003.07.015.137.02.207.023.376.058.748.107 1.115.028.218.062.433.1.648.047.27.098.543.158.81.07.314.153.622.24.93.05.162.094.323.146.48.136.42.29.827.454 1.227.02.047.036.093.057.14 2.485 5.848 8.292 9.963 15.094 9.963 4.516 0 8.594-1.83 11.56-4.77l.1-.093c.316-.32.62-.65.907-.992z"/><path fill="#824D9E" d="M1381.994 198.445c-.076-4.365-1.895-8.306-4.796-11.184l-.094-.097c-.32-.312-.652-.613-.997-.9-.256-.215-.528-.412-.797-.612-.128-.092-.252-.193-.38-.282-.317-.22-.643-.42-.97-.616l-.14-.083c-2.342-1.366-5.045-2.175-7.94-2.237-.114 0-.23.003-.334.01-.707.044-1.185.16-1.39.223l-.14.034.017.008c-1.32.303-2.31 1.46-2.31 2.862 0 1.108.614 2.07 1.523 2.577-.91.505-1.522 1.468-1.522 2.575 0 1.208.733 2.247 1.782 2.704-1.048.455-1.783 1.493-1.783 2.703 0 .944.454 1.776 1.15 2.316h19.12zm-34.64-4.67c-.1-.628-.462-1.19-.993-1.546-.535-.358-1.19-.472-1.835-.32-.808.187-1.462.818-1.67 1.61-.187.71-.04 1.443.4 2.01.44.566 1.107.89 1.827.89.666 0 1.302-.295 1.745-.806.368-.427.562-.94.562-1.483 0-.13-.02-.255-.036-.356v.002z"/><ellipse fill="#824D9E" cx="1357.614" cy="213.391" rx="6.808" ry="6.752"/><ellipse fill="#FFF" cx="1357.614" cy="213.391" rx="2.633" ry="2.612"/><ellipse fill="#824D9E" cx="1372.926" cy="213.391" rx="6.808" ry="6.752"/><ellipse fill="#FFF" cx="1372.926" cy="213.391" rx="2.633" ry="2.612"/><path fill="#FFF" d="M1365.88 182.434c2.895.062 5.598.872 7.938 2.236.047.026.09.054.137.082.33.196.656.397.97.615.13.09.254.188.38.282.273.2.542.397.8.613.344.285.676.586.997.9.034.03.064.065.096.097 2.898 2.874 4.712 6.808 4.793 11.165h.003v.02c-.004 2.997-.838 5.796-2.267 8.208-.027.047-.056.09-.084.136-.198.327-.4.65-.62.962-.09.13-.19.25-.286.38-.202.266-.4.534-.618.79-.015.018-.035.035-.05.053 1.032 1.184 1.664 2.725 1.664 4.414 0 3.728-3.05 6.75-6.81 6.75-3.293 0-6.038-2.318-6.67-5.4-.235.01-.465.036-.7.036-.428 0-.85-.016-1.267-.048-.626 3.09-3.375 5.414-6.672 5.414-3.76 0-6.81-3.023-6.81-6.753 0-1.847.75-3.52 1.962-4.738-.934-1.163-1.716-2.45-2.306-3.84l-.058-.137c-.166-.4-.318-.807-.452-1.226-.052-.16-.097-.32-.145-.483-.088-.306-.17-.613-.24-.928-.062-.268-.112-.54-.16-.81-.037-.215-.072-.43-.1-.647-.05-.368-.083-.74-.107-1.114-.004-.07-.015-.138-.02-.208-.057-.268-.117-.514-.137-.595-.424-1.216-1.206-2.267-2.213-3.048-.443.51-1.08.804-1.745.804-.72 0-1.386-.324-1.827-.89-.443-.567-.59-1.3-.402-2.012.208-.79.864-1.42 1.67-1.61.187-.044.374-.065.558-.065.456 0 .897.132 1.278.386.53.355.893.92.994 1.547.005.032.006.077.01.114 1.613 1.065 2.825 2.666 3.392 4.536h12.097c-.682-.54-1.13-1.363-1.13-2.298 0-1.21.734-2.247 1.783-2.703-1.05-.458-1.783-1.496-1.783-2.705 0-1.106.613-2.07 1.522-2.575-.91-.506-1.522-1.47-1.522-2.575 0-1.4.99-2.56 2.31-2.863l-.016-.007.138-.034c.206-.06.685-.177 1.39-.22.104-.008.22-.01.335-.012m16.114 15.992h.007m-16.12-17.522h-.04l-.064.002c-.112.002-.226.005-.326.01-.826.054-1.398.188-1.693.273l-.135.034c-.058.015-.113.032-.167.054-1.94.55-3.276 2.283-3.276 4.294 0 .937.297 1.832.823 2.576-.526.742-.823 1.638-.823 2.575 0 .997.334 1.94.916 2.705-.582.763-.916 1.707-.916 2.703 0 .26.023.518.068.77h-8.418c-.674-1.537-1.737-2.885-3.082-3.906-.26-.823-.798-1.545-1.528-2.03-.633-.422-1.372-.645-2.138-.645-.305 0-.612.035-.912.105-1.354.314-2.457 1.378-2.81 2.71-.307 1.177-.06 2.392.673 3.335.736.943 1.847 1.484 3.048 1.484.56 0 1.107-.122 1.605-.352.378.45.675.958.874 1.504.022.09.056.233.09.392l.007.054c.03.454.07.854.12 1.234.03.232.07.466.108.7.055.307.11.603.177.895.074.338.164.675.263 1.012l.027.1c.042.145.085.29.132.434.138.43.3.87.492 1.335l.018.046.045.11c.47 1.108 1.062 2.176 1.764 3.184-1 1.392-1.54 3.054-1.54 4.793 0 4.567 3.745 8.282 8.35 8.282 3.363 0 6.35-2.014 7.654-4.976 1.304 2.962 4.295 4.975 7.657 4.975 4.605 0 8.35-3.716 8.35-8.283 0-1.556-.445-3.074-1.27-4.383l.065-.087c.075-.097.15-.194.22-.295.257-.365.486-.734.675-1.046l.028-.047.065-.106c1.602-2.706 2.458-5.783 2.476-8.9.002-.033.002-.067.002-.1 0-.05-.003-.097-.007-.144-.114-4.566-1.974-8.86-5.243-12.103l-.1-.103c-.36-.352-.727-.683-1.094-.986-.27-.225-.556-.438-.844-.65l-.148-.11c-.098-.075-.196-.15-.297-.22-.374-.257-.745-.482-1.057-.67l-.045-.026-.11-.067c-2.63-1.53-5.635-2.377-8.684-2.443h-.035l.006-.004z"/></g><g><path fill="#FFF" d="M1527.516 173.557c-.192-.87-.714-1.613-1.467-2.09-.54-.34-1.156-.52-1.79-.52-1.15 0-2.204.58-2.82 1.55l-15.175 23.904c-2.16-.268-4.382.357-6.08 1.71-1.002-.28-2.128.142-2.69 1.026-.168.262-.275.544-.334.837-.903-.103-1.812.32-2.306 1.1-.346.542-.457 1.186-.317 1.813.047.212.122.415.22.602l-6.26 5.947c-.02.02-.04.038-.06.06-.52.55-.795 1.24-.77 1.938.012.404.104.75.176 1.03l.043.154c.796 3.252 3.024 6.334 6.124 8.475.06.056.126.102.192.148l.367.23c.068.045.14.084.214.116 2.457 1.428 5.14 2.18 7.77 2.18.858 0 1.703-.082 2.51-.242l.153-.033.218-.045c.038.476.15.953.345 1.417.72 1.702 2.38 2.803 4.23 2.803.613 0 1.215-.124 1.786-.365.47-.2.89-.473 1.26-.8.23.186.48.338.752.452.03.256.08.512.186.76.422.998 1.398 1.647 2.483 1.647.36 0 .713-.073 1.047-.214 1.368-.58 2.01-2.163 1.43-3.53-.197-.464-.516-.848-.91-1.13.066-.518.012-1.053-.203-1.565-.483-1.138-1.597-1.877-2.836-1.877-.282 0-.557.05-.825.128-.747-1.634-2.365-2.687-4.17-2.687-.465 0-.92.07-1.358.207l1.747-5.274c.863.042 1.68-.384 2.145-1.114.345-.543.457-1.187.317-1.814-.06-.27-.163-.518-.303-.745.24-.175.447-.397.613-.657.583-.92.46-2.086-.22-2.87.503-2.125.114-4.39-1.042-6.23l15.176-23.906c.478-.753.634-1.646.44-2.517h-.005l-.004-.006z"/><ellipse transform="rotate(-22.94 1514.99 224.12)" fill="#AB8B2F" cx="1514.989" cy="224.111" rx="1.374" ry="1.374"/><ellipse transform="rotate(-22.94 1516.462 226.662)" fill="#AB8B2F" cx="1516.462" cy="226.654" rx=".988" ry=".988"/><ellipse transform="rotate(-22.94 1509.996 223.07)" fill="#AB8B2F" cx="1509.996" cy="223.063" rx="2.885" ry="2.885"/><path fill="#AB8B2F" d="M1524.926 172.794c-.763-.346-1.664.018-2.112.723l-15.74 24.785c.478.14.948.34 1.396.598l.005-.01.11.077c.038.025.08.043.118.067l-.007.01c.425.294.804.634 1.135 1.007l15.804-24.893c.525-.827.213-1.946-.714-2.368h.006v.004z"/><path fill="#D8AB28" d="M1498.926 201.81l-.61.627 11.508 7.307.31-.82.288-.752-10.938-6.943m11.705 4.94l.02-.058h-.004c.614-2.112.093-4.406-1.37-6.055-.333-.37-.71-.708-1.136-1.003l.005-.01c-.038-.025-.076-.045-.115-.068-.038-.026-.074-.054-.112-.077l-.007.008c-.447-.26-.915-.457-1.394-.598-2.11-.625-4.41-.118-6.063 1.335v-.005l-.042.046c-.175.154-.332.333-.494.512l10.46 6.642c.095-.22.19-.44.255-.666v-.004zm-21.52 4.5c-.188.196-.312.434-.3.7.01.275.1.56.17.84.686 2.806 2.642 5.593 5.58 7.577l-.005.008c.06.038.123.072.185.11.06.037.12.08.18.12l.004-.007c3.044 1.815 6.4 2.4 9.232 1.825.282-.055.58-.093.832-.202.246-.104.408-.32.506-.57l3.303-9.964-12.08-7.668-7.61 7.23h.004z"/><path fill="#AB8B2F" d="M1511.51 207.202l-.576-.365-10.46-6.64-.575-.36c-.327-.207-.76-.11-.967.215-.208.327-.112.76.217.967l.333.212 10.94 6.944.336.214c.325.207.758.11.965-.215.208-.33.11-.762-.217-.97l.002-.003zm-.627 3.213l-1.057-.67-11.51-7.307-1.058-.668c-.326-.207-.76-.11-.966.218-.208.325-.11.758.217.965l.772.493 12.077 7.668.774.49c.328.208.76.11.968-.217.207-.328.115-.758-.213-.965h-.003l-.004-.007z"/></g><g><path fill="#FFF" d="M1577.59 173.084c-.49 0-.89.402-.89.894v8.356c0 .49.398.89.89.89s.892-.398.892-.89v-8.356c0-.492-.4-.894-.892-.894zm-14.2 6.827c-.342-.333-.93-.326-1.26.015-.167.17-.257.393-.257.632.004.237.1.46.27.624l5.507 5.386c.166.16.387.25.62.25.243 0 .47-.095.64-.27.165-.17.256-.393.253-.632s-.1-.46-.27-.624l-5.504-5.38zm29.84.015c-.33-.34-.92-.348-1.258-.014l-5.507 5.38c-.17.167-.265.39-.27.63 0 .237.09.46.256.632.17.17.398.264.64.264.233 0 .454-.09.62-.256l5.508-5.38c.17-.166.264-.39.267-.628.003-.238-.088-.462-.255-.633v.005zm8.097 37.342c0-.142-.017-.28-.05-.415l-1.347-12.538c-.008-.077-.02-.156-.04-.227-.265-1.523-1.362-2.87-3.264-4.014-.133-.136-.273-.262-.42-.38-.29-1.4-1.29-2.545-2.596-3.05-.497-1.277-1.598-2.257-2.952-2.58-.696-1.587-2.38-2.67-4.205-2.513-.99-1.31-2.555-2.12-4.27-2.12-.28 0-.56.02-.834.065-.914-.94-2.173-1.484-3.528-1.484-1.326 0-2.573.536-3.49 1.453-1.906-.223-3.76.624-4.867 2.086-1.83-.157-3.51.926-4.2 2.51-1.36.323-2.464 1.303-2.958 2.584-1.244.483-2.205 1.537-2.55 2.84-2.57 1.256-4.026 2.802-4.334 4.607-.02.072-.032.147-.04.223l-1.334 12.404c-.008.066-.013.132-.01.2-.03.2-.044.4-.044.598 0 6.074 12.263 8.846 23.66 8.856h.024c11.387-.01 23.64-2.78 23.64-8.855v-.075c.005-.057.008-.117.008-.176h-.003l.002.003zm-23.65 7.32h-.02c-12.278-.01-21.877-3.114-21.877-7.07 0-.14.014-.292.047-.45v-.155l1.334-12.405.005.01c.174-1.446 1.723-2.763 4.247-3.816l.004.043c0-.014 0-.028-.004-.042-.006-.042-.014-.085-.014-.13 0-1.336 1.08-2.414 2.413-2.414 0-1.334 1.082-2.413 2.413-2.413.165 0 .327.017.48.048 0-.02-.006-.036-.006-.05 0-1.335 1.08-2.414 2.413-2.414.454 0 .87.132 1.235.35.46-1.424 1.802-2.458 3.382-2.458.464 0 .903.095 1.31.256.534-.99 1.57-1.675 2.776-1.675 1.25 0 2.314.727 2.833 1.773.463-.22.98-.355 1.527-.355 1.58 0 2.92 1.032 3.385 2.46.362-.22.78-.352 1.235-.352 1.334 0 2.413 1.08 2.413 2.413l-.004.047c.153-.033.312-.05.476-.05 1.335 0 2.413 1.08 2.413 2.413 1.335 0 2.414 1.08 2.414 2.413 0 .045-.007.088-.014.13l-.003.043c.39.156.724.412.985.732 1.575.9 2.533 1.93 2.668 3.043l.006-.01 1.372 12.762h-.007c.01.085.016.168.016.25 0 3.954-9.6 7.058-21.853 7.068v.004l.005.002z"/><path fill="#FFF" d="M1561.61 205.486c-.56-.276-1-.567-1.297-.865.298.3.74.59 1.3.866h-.004zm16.03 2.364h-.023c-1.84 0-3.613-.067-5.282-.19 1.675.127 3.45.194 5.287.194h.042-.02l-.003-.004z"/><path fill="#D02030" d="M1560.213 201.793c-.057.104-.11.213-.154.324-.062.156-.11.32-.138.49-.02.122-.03.247-.03.374 0 .118.018.23.035.342-.042.12-.07.237-.07.355 0 .326.156.64.454.942.3.297.74.587 1.295.865.375.177.803.355 1.282.518s1.007.327 1.58.473c.57.146 1.19.284 1.847.41.44.086.894.167 1.367.243 1.42.223 2.982.402 4.65.524 1.67.123 3.444.19 5.283.19h.043s.448.017.59 0h.04c9.813-.006 17.757-1.87 17.757-4.173 0-.117-.023-.234-.066-.354.017-.113.036-.224.036-.34 0-.574-.206-1.093-.54-1.508-.26-.32-.596-.576-.984-.73 0-.015 0-.03.004-.043.006-.043.014-.085.014-.132 0-1.334-1.08-2.413-2.412-2.413 0-1.334-1.082-2.413-2.413-2.413-.166 0-.327.017-.48.05 0-.02.004-.035.004-.05 0-1.335-1.078-2.414-2.412-2.414-.455 0-.876.134-1.235.352-.47-1.426-1.807-2.46-3.388-2.46-.55 0-1.065.134-1.53.355-.517-1.046-1.584-1.774-2.832-1.774-1.206 0-2.242.684-2.776 1.675-.406-.16-.844-.254-1.308-.254-1.58 0-2.92 1.03-3.385 2.458-.36-.22-.78-.352-1.234-.352-1.334 0-2.413 1.078-2.413 2.413l.003.046c-.156-.03-.312-.048-.48-.048-1.334 0-2.413 1.078-2.413 2.412-1.334 0-2.412 1.08-2.412 2.413 0 .047.008.09.015.132l.003.042c-.51.206-.933.582-1.202 1.05l.002.01h.005z"/><path fill="#F04A3E" d="M1599.517 217.27h.007l-1.372-12.764v.007c-.137-1.113-1.093-2.143-2.67-3.043.335.41.54.937.54 1.51 0 .115-.018.226-.035.34.043.118.068.236.068.354 0 2.302-7.945 4.167-17.755 4.173h-.045c-.142.017-.585 0-.587 0h-.045c-1.84 0-3.613-.067-5.283-.19-1.666-.123-3.228-.3-4.646-.526-.474-.074-.93-.155-1.368-.24-.658-.128-1.278-.265-1.85-.41-.572-.148-1.1-.31-1.58-.476-.478-.166-.908-.34-1.282-.525-.56-.27-.998-.56-1.296-.864-.298-.302-.454-.62-.454-.943 0-.12.028-.237.07-.355-.018-.114-.036-.227-.036-.34 0-.13.01-.256.028-.376.028-.17.078-.333.14-.49.042-.114.094-.22.155-.324.27-.473.69-.848 1.202-1.05v-.043c-2.526 1.053-4.073 2.37-4.248 3.818l-.006-.012-1.334 12.406v.156c-.03.156-.047.305-.047.45 0 3.954 9.6 7.058 21.874 7.068h.024c12.254-.01 21.853-3.114 21.853-7.068 0-.082-.004-.165-.014-.25h-.003l-.003.007z"/><path fill="#D02030" d="M1574.92 217.33c.127-.346.127-.706.042-1.064-.16-.667-.535-1.192-1.155-1.544-.23-.13-.473-.2-.738-.166-.46.056-.796.354-.898.794-.022.1-.04.196-.057.293v.373c.004.01.01.02.014.033.023.27.098.53.222.775.265.525.66.923 1.24 1.12.166.058.337.1.514.072.412-.07.673-.32.81-.69l.003.003zm6.12 1.83c-.184-.304-.394-.595-.604-.88-.34-.463-.73-.88-1.202-1.22-.53-.382-1.12-.55-1.778-.468-.7.09-1.31.375-1.8.866-.514.52-.893 1.136-1.162 1.803-.11.27-.178.554-.263.83-.155.508.114 1.075.618 1.292.26.114.534.103.807.06.292-.042.567-.142.837-.24.376-.132.746-.27 1.147-.32.363-.042.723-.032 1.073.086.332.114.66.24.985.37.23.084.46.162.714.16.08-.003.162-.005.24-.02.322-.052.59-.193.754-.474.127-.222.13-.47.09-.71-.068-.41-.247-.778-.458-1.128h.003v-.005zm-2.235-4.082c.242.106.486.128.738.028.293-.113.54-.29.74-.525.4-.467.562-1.006.577-1.645l-.032-.355c-.038-.397-.2-.74-.5-1.015-.316-.288-.735-.404-1.196-.198-.348.153-.606.397-.802.706-.23.37-.35.767-.393 1.19-.037.37.004.726.153 1.068.146.332.37.598.715.754v-.006zm-3.363-.108c.176.105.36.2.574.206.32.01.59-.108.81-.33.312-.316.435-.71.456-1.132.025-.475-.07-.93-.29-1.36-.2-.404-.485-.73-.907-.922-.23-.11-.466-.17-.724-.11-.32.076-.547.276-.723.536-.213.312-.273.664-.273 1.03 0 .315.054.626.165.924.175.48.457.883.914 1.155v.005l-.002-.002zm7.266-.414c-.174-.142-.377-.23-.607-.22-.348.014-.66.142-.924.357-.662.545-.94 1.25-.88 2.077.02.306.156.582.383.806.183.184.41.294.68.284.4-.012.744-.166 1.03-.426.53-.483.774-1.084.795-1.794-.007-.07-.007-.162-.02-.248-.052-.332-.188-.62-.455-.838l-.002.002z"/></g><g><path fill="#FFF" d="M1679.38 204.71c-.67-.435-1.68-.895-2.686-.606-.55.158-1.008.523-1.293 1.025-.536.96-1.157 1.902-1.854 2.8l-2.67-4c.097-.024.193-.05.286-.077 2.963-.85 4.677-3.952 3.826-6.912-.638-2.218-2.614-3.833-4.916-4.02l-.1-.006c-.122-.007-.244-.014-.368-.01l-.164.003c-.12.004-.24.01-.334.02l-.076.01c-.22.022-.44.06-.698.12l-.17.043c-.043.008-.08.02-.12.03l-.058.02c-.617.176-1.25.45-1.88.816l-.04.025c-.288.17-.57.355-.844.547l-.03.023-.06.043c-.253.184-.47.356-.645.503-1.537-.302-3.328-.296-5.28.01.433-.876.42-1.946-.133-2.834l-.014-.024c-.69-1.087-2.025-1.597-3.264-1.24-.254.07-.503.18-.728.322l-9.55 5.926c-.603-2.093-1.417-4.266-2.398-6.385-4.456-9.628-9.702-13.857-13.255-14.072-.8-1.217-2.31-1.78-3.72-1.376-.276.082-.545.198-.796.35-1.58.947-2.097 3.006-1.143 4.59l9.742 16.226c1.278 2.13 1.65 3.12 1.715 3.317l4.1 14.246c-.646-.416-1.27-.86-1.864-1.335-.56-.45-1.278-.594-1.96-.398-.866.247-1.437.952-1.793 1.46-.858 1.227-.608 2.922.57 3.86 1.24.992 2.585 1.892 4.002 2.67 6.9 3.79 15.37 4.666 23.235 2.4 7.836-2.253 14.53-7.466 18.367-14.302.732-1.306.323-2.966-.933-3.786v-.007l-.005-.012zm-31.227 8.366c8.83-2.54 14.222-6.11 16.625-7.988l4.674 7.012c-2.7 2.174-5.855 3.817-9.205 4.782-4.155 1.192-8.506 1.353-12.642.467l-1.166-3.807c.577-.148 1.148-.304 1.713-.467z"/><path fill="#E55625" d="M1664.756 196.985l.158-.135c-1.82-.53-4.285-.485-7 .144l2.133 3.694c1.487-1.09 3.06-2.32 4.71-3.7v-.003zm-26.318-2.785l.074.125c1 1.417 1.824 3.87 1.824 3.87h-.003c.28.718.55 1.493.784 2.31.15.52.24.912.28 1.205l3.1-1.927c-.562-2.546-1.513-5.367-2.842-8.237-3.826-8.27-9.36-13.924-12.666-13.083l8.952 14.91s.196.297.5.828h-.004zm11.57 12.61l1.106-.542c1.984-1.008 4.285-2.34 6.888-4.127l-2.56-4.43c-.844.29-1.7.634-2.555 1.03-3.35 1.55-6.08 3.608-7.783 5.683-.015-.595-.058-1.22-.134-1.876l-2.573 1.597c-.148.092-.306.148-.467.175l1.485 4.845c1.127-.227 3.375-.83 6.59-2.36l.003.006z"/><path fill="none" d="M1650.008 206.81l1.106-.542c1.984-1.01 4.285-2.34 6.888-4.127l-2.56-4.43-.705-1.22-9.765 6.062-2.576 1.596c-.147.092-.305.148-.466.176l1.485 4.846c1.127-.227 3.375-.83 6.59-2.36h.003zm-5.608 5.577l1.936 6.32c4.61 1.162 9.6 1.09 14.355-.28 4.102-1.176 7.836-3.273 10.9-6.03l-6.476-9.708s-6.437 6.39-20.712 9.697h-.002z"/><path fill="#F47E47" d="M1678.5 206.06c-.538-.35-1.378-.702-1.694-.142-.944 1.686-2.097 3.252-3.412 4.687l-5.726-8.585-.007-.083c.9.508 1.99.672 3.06.365 2.108-.608 3.327-2.81 2.72-4.92-.47-1.634-1.902-2.73-3.504-2.858l-.07-.006c-.085-.005-.17-.01-.257-.008-.04 0-.08 0-.116.003-.087.002-.173.005-.26.014l-.018.003c-.163.017-.33.046-.495.086-.06.014-.124.026-.186.043-.004 0-.008 0-.014.002l-.012.004c-.577.155-1.12.41-1.6.687h-.002c-.292.172-.56.347-.79.517v-.005c-.01.008-.023.018-.034.03-.48.344-.802.64-.897.73-.1.082-.186.157-.267.226l-.158.137c-1.65 1.384-3.224 2.614-4.71 3.705l-2.137-3.692-1.052-1.824.426-.263c.61-.38.798-1.18.416-1.79v-.003c-.377-.61-1.177-.797-1.788-.417l-11.416 7.083-3.102 1.924c-.04-.29-.13-.683-.277-1.206-.235-.82-.504-1.588-.784-2.308 0 0-.823-2.453-1.82-3.87l-.077-.124c-.302-.53-.5-.825-.5-.825l-8.95-14.914-.434-.722c-.492-.825-1.558-1.09-2.38-.598-.82.493-1.088 1.558-.594 2.38l9.742 16.227c1.304 2.173 1.742 3.278 1.882 3.7l5.146 17.89c-.69-.3-1.368-.625-2.027-.99-1.215-.664-2.37-1.436-3.437-2.286-.508-.402-1.062.21-1.428.733-.364.52-.25 1.27.258 1.674 1.17.935 2.438 1.782 3.77 2.514 6.532 3.586 14.557 4.412 22.015 2.266 7.432-2.137 13.776-7.074 17.405-13.544.316-.56.13-1.297-.406-1.648l-.002.003zm-36.57-1.736c.163-.03.32-.084.467-.176l2.575-1.596 9.765-6.06.704 1.217 2.562 4.43c-2.605 1.786-4.905 3.117-6.893 4.128l-1.104.543c-3.216 1.53-5.464 2.133-6.59 2.36l-1.486-4.846zm18.76 14.104c-4.753 1.368-9.74 1.44-14.353.28l-1.938-6.32c14.273-3.31 20.712-9.7 20.712-9.7l6.477 9.708c-3.066 2.757-6.8 4.853-10.9 6.037v-.005z"/></g><g><path fill="#0091BB" d="M1739.834 206.385c-.022.003-.044 0-.064 0-.114.01-.228.02-.35.008h.024c.117.01.232.003.344-.007.018-.002.04 0 .057 0v-.002h-.014.004z"/><path fill="#FFF" d="M1751.297 186.223c.12 0 .24-.004.36-.01 1.79-.094 3.436-.86 4.64-2.162 1.216-1.312 1.836-3.01 1.742-4.78-.155-2.983-2.36-5.467-5.268-6.094-.965-1.342-2.546-2.17-4.233-2.17-.216 0-.43.014-.638.038-1.697.206-3.142 1.205-3.938 2.652-3.18.446-5.56 3.202-5.43 6.4-.5.696-.763 1.544-.715 2.41.043.858.374 1.635.894 2.25-1.437.202-2.545 1.44-2.545 2.935v.75l-3.023-3.402-2.224-2.625c-.044-.056-.094-.107-.147-.156-.563-.557-1.327-.874-2.12-.874-.773 0-1.492.3-2.022.844-.62.633-2.06 2.41-2.318 2.732l-18.642 21.044c-1.085 1.228-.972 3.108.255 4.193l.097.08 4.363 3.31c.672.51 1.6.652 2.397.367l.134-.05 3.712 8.86c.513 1.22 1.795 2.01 3.266 2.01h17.316c1.453 0 2.728-.773 3.25-1.975l3.85-8.905c.12.057.243.11.37.155.277.1.566.147.858.147.554 0 1.1-.182 1.54-.515l4.363-3.3.097-.08c.595-.527.948-1.253.997-2.044.047-.79-.216-1.554-.742-2.15l-5.85-6.605v-11.81c0-.625-.193-1.206-.525-1.685.86-.077 1.684-.32 2.43-.72 1.033.608 2.225.935 3.444.935z"/><circle fill="#14BBD3" cx="1731.033" cy="218.968" r=".518"/><path fill="#0091BB" d="M1722.797 205.368h-.013c-1.223 0-2.216.864-2.216 1.93v2.682c0 .185.174.335.388.335h3.67c.215 0 .39-.15.39-.335v-2.683c0-1.065-.992-1.93-2.218-1.93zm11.236 0h-.013c-1.224 0-2.217.864-2.217 1.93v2.682c0 .185.174.335.39.335h3.67c.213 0 .387-.15.387-.335v-2.683c0-1.065-.99-1.93-2.218-1.93z"/><path fill="#14BBD3" d="M1726.876 196.18c-.054 0-.102-.003-.153-.006.05.005.102.006.154.006zm3.85.094l-.153.002c.05 0 .102 0 .153-.004v.002zm-15.192 12.217c.01 0 .018-.002.026-.003-.008 0-.016.004-.026.005z"/><path fill="#0091BB" d="M1750.55 207.207l-1.37-1.547-4.903-5.538-6.45-7.286-5.942-6.71-2.237-2.64v.004c-.48-.528-1.327-.612-1.83-.1-.603.618-2.235 2.64-2.235 2.64l-17.293 19.532-1.37 1.546c-.478.54-.43 1.364.11 1.842l4.363 3.31c.238.177.552.227.833.125.724-.26 1.21-.898 1.192-1.608 0-.013.007-.026.007-.04l-.047-.107c1.016-.107 1.768-.916 1.684-1.82-.01-.1-.032-.195-.06-.288.107.008.22.01.332 0 .067-.007.134-.014.198-.027l.027-.008c.057-.014.113-.024.167-.04l.013-.004c.12-.034.234-.08.344-.134.626-.323 1.026-.94.965-1.61-.015-.133-.05-.263-.095-.385h.056c.01.004.02 0 .032.004.102.007.205.013.312.006h.04v-.003h.02c1.028-.1 1.79-.913 1.706-1.822 0-.012-.004-.025-.007-.036h.043c1.03-.097 1.798-.914 1.715-1.826-.013-.1-.034-.196-.062-.288.107.005.22.008.335-.003 1.028-.096 1.795-.913 1.71-1.826-.013-.132-.047-.256-.094-.376l.093.008c.062 0 .125.005.188.004h.022c.085.004.17.004.255-.004.08-.008.156-.022.23-.036l.028-.007c.067-.02.14-.037.208-.06.788-.26 1.32-.958 1.246-1.725 0-.014-.004-.025-.007-.038h.043c1.032-.096 1.795-.914 1.712-1.824-.01-.1-.032-.196-.06-.288.053.005.103.006.155.006.06 0 .118 0 .18-.005.828-.078 1.473-.625 1.656-1.308.142.73.812 1.324 1.68 1.404.06.006.12.008.18.008.05 0 .1 0 .152-.004-.027.093-.05.187-.06.288-.085.91.684 1.728 1.716 1.82h.04c0 .015-.007.028-.008.042-.077.834.565 1.594 1.47 1.78.08.02.162.033.245.042h.02c.148.013.288.005.427-.01-.046.12-.08.245-.094.378-.053.58.24 1.112.72 1.456l.017-.004c.098.07.2.137.313.188v.01c.204.09.426.15.665.174.112.01.224.007.335 0-.03.094-.054.188-.063.288-.083.91.683 1.73 1.714 1.826.013 0 .026-.002.04 0 0 .01-.004.023-.006.036-.083.91.684 1.73 1.715 1.825h.05c.115.008.23 0 .343-.01h.058c-.045.12-.08.248-.093.382-.085.91.683 1.73 1.714 1.825.114.01.224.01.334 0-.027.094-.05.19-.06.29-.053.554.215 1.067.657 1.407h.023c.195.148.423.265.673.338l.043.008c.073.02.147.037.224.05.03.002.058.013.087.013.01 0 .02.006.028.006h.044l-.01.037c-.066.75.443 1.437 1.203 1.71.278.1.592.053.83-.128l4.362-3.305c.54-.478.59-1.302.112-1.842v.012z"/><path fill="#14BBD3" d="M1743.67 210.66l-.045-.01c-.26-.074-.496-.186-.693-.34-.444-.34-.71-.853-.656-1.405.01-.102.032-.197.06-.29-.107.007-.217.008-.335 0-1.025-.095-1.794-.912-1.707-1.827.014-.134.05-.26.094-.383h-.057c-.112.013-.228.02-.345.01h-.053c-1.032-.098-1.795-.916-1.712-1.827 0-.013.006-.026.008-.037-.014-.002-.027 0-.04 0-1.032-.097-1.8-.914-1.715-1.826.01-.1.033-.196.06-.288-.11.006-.22.01-.333 0-.24-.024-.46-.086-.665-.174-.116-.054-.228-.125-.328-.197-.482-.343-.774-.878-.72-1.456.013-.135.046-.26.093-.38-.14.014-.28.025-.43.01h-.02c-.082-.005-.164-.02-.243-.04-.904-.186-1.545-.944-1.468-1.78 0-.014.006-.027.007-.04h-.04c-1.03-.094-1.8-.91-1.715-1.822.01-.102.033-.197.06-.29-.048.003-.098.004-.15.004-.058 0-.12 0-.18-.006-.867-.08-1.537-.676-1.68-1.404-.184.683-.83 1.23-1.657 1.307-.062.006-.12.007-.18.007-.053 0-.104 0-.155-.004.027.094.05.188.06.29.083.91-.683 1.728-1.714 1.824h-.04c0 .013.003.024.005.038.072.767-.46 1.465-1.245 1.725-.07.023-.14.043-.212.058-.01 0-.017 0-.026.004-.074.013-.15.026-.228.034-.09.007-.175.007-.258.003h-.022c-.063 0-.126 0-.187-.006l-.094-.01c.046.12.08.247.093.38.085.91-.684 1.728-1.715 1.825-.11.01-.222.007-.33 0 .026.093.053.19.06.29.086.91-.683 1.727-1.714 1.823h-.04c0 .014.005.024.007.038.088.91-.676 1.723-1.7 1.823h-.022l-.01.002h-.038c-.108.008-.21 0-.314-.006h-.033c-.022-.004-.04 0-.06-.004.045.12.08.25.093.383.063.67-.337 1.29-.964 1.606-.108.058-.224.105-.346.14l-.013.005c-.054.02-.108.028-.165.04-.008 0-.016.007-.027.008-.062.013-.13.023-.196.027-.112.013-.224.01-.332.002.027.094.05.188.06.29.083.9-.67 1.71-1.685 1.818l.046.107-.005.04 4.75 11.346c.246.587.942.985 1.726.985h4.79l-.01-8.192c0-.366.308-.664.696-.664h6.16c.383 0 .694.3.694.667l.032 8.19h4.95c.777 0 1.47-.387 1.72-.97l4.94-11.427c-.07-.01-.135-.032-.202-.05v.006h.005zm-18.656-3.352v2.67c0 .044-.013.084-.027.122-.06.125-.198.214-.362.214h-3.67c-.214 0-.388-.15-.388-.335v-2.683c0-1.065.993-1.93 2.217-1.93h.016c1.224 0 2.215.865 2.215 1.93v.014-.002zm11.24 0v2.67c0 .186-.175.336-.39.336h-3.672c-.215 0-.39-.15-.39-.335v-2.683c0-1.065.992-1.93 2.218-1.93h.013c.58 0 1.104.195 1.498.51.443.354.725.858.725 1.42v.014-.002h-.002z"/><path fill="#14BBD3" d="M1723.554 200.116l.027-.007c-.013 0-.02 0-.026.002v.004zm-7.826 8.332l.013-.006c-.004 0-.008.003-.012.004v.002zm27.94 2.213l-.043-.01.044.007v.004zm.613-22.968c0-.718-.58-1.302-1.302-1.302h-3.845c-.723 0-1.305.584-1.305 1.304v5.15l6.448 7.282c0-.018.004-.035.004-.053v-12.381z"/><path fill="#0091BB" d="M1751.57 184.55c2.796-.148 4.947-2.47 4.805-5.19-.126-2.5-2.143-4.458-4.627-4.657-.632-1.347-2.08-2.2-3.644-2.01-1.486.182-2.642 1.25-3.005 2.605-.158-.006-.32-.006-.484 0-2.566.134-4.544 2.27-4.414 4.773.01.2.038.392.073.583-.515.42-.83 1.062-.793 1.765.06 1.192 1.102 2.103 2.325 2.042.47-.027.894-.188 1.24-.45.624.257 1.316.388 2.04.348 1.076-.054 2.045-.465 2.8-1.103.968.864 2.274 1.363 3.687 1.29l-.003.004zm-20.036 29.7h-6.162c-.385 0-.697.3-.697.667l.013 8.19h7.573l-.032-8.19c0-.367-.31-.666-.694-.666zm-.5 5.236c-.288 0-.52-.232-.52-.518 0-.287.232-.52.52-.52.284 0 .517.233.517.52 0 .286-.232.518-.517.518z"/></g></svg>